<?xml version="1.0" encoding="UTF-8" standalone="no"?>
<!-- Created with Inkscape (http://www.inkscape.org/) -->

<svg
   width="1090.4381mm"
   height="617.74622mm"
   viewBox="0 0 1090.4381 617.74622"
   version="1.1"
   id="svg17887"
   inkscape:version="1.1.2 (1:1.1+202202050852+0a00cf5339)"
   sodipodi:docname="background-letters.svg"
   xmlns:inkscape="http://www.inkscape.org/namespaces/inkscape"
   xmlns:sodipodi="http://sodipodi.sourceforge.net/DTD/sodipodi-0.dtd"
   xmlns="http://www.w3.org/2000/svg"
   xmlns:svg="http://www.w3.org/2000/svg">
  <sodipodi:namedview
     id="namedview17889"
     pagecolor="#ffffff"
     bordercolor="#666666"
     borderopacity="1.0"
     inkscape:pageshadow="2"
     inkscape:pageopacity="0.0"
     inkscape:pagecheckerboard="0"
     inkscape:document-units="mm"
     showgrid="false"
     inkscape:zoom="0.46146184"
     inkscape:cx="2109.6002"
     inkscape:cy="1121.4362"
     inkscape:window-width="1366"
     inkscape:window-height="703"
     inkscape:window-x="0"
     inkscape:window-y="544"
     inkscape:window-maximized="1"
     inkscape:current-layer="layer1" />
  <defs
     id="defs17884">
    <inkscape:path-effect
       effect="offset"
       id="path-effect45086"
       is_visible="true"
       lpeversion="1"
       linejoin_type="miter"
       unit="mm"
       offset="9.6679096"
       miter_limit="4"
       attempt_force_join="false"
       update_on_knot_move="true" />
    <inkscape:path-effect
       effect="offset"
       id="path-effect45084"
       is_visible="true"
       lpeversion="1"
       linejoin_type="miter"
       unit="mm"
       offset="8.5983597"
       miter_limit="4"
       attempt_force_join="false"
       update_on_knot_move="true" />
    <inkscape:path-effect
       effect="offset"
       id="path-effect45088"
       is_visible="true"
       lpeversion="1"
       linejoin_type="miter"
       unit="mm"
       offset="9.6498938"
       miter_limit="4"
       attempt_force_join="false"
       update_on_knot_move="true" />
  </defs>
  <g
     inkscape:label="Layer 1"
     inkscape:groupmode="layer"
     id="layer1"
     transform="translate(452.90823,147.7592)">
    <path
       style="fill:#d35f5f;fill-opacity:1;stroke:none;stroke-width:0.264583px;stroke-linecap:butt;stroke-linejoin:miter;stroke-opacity:1"
       d="M -14.4039,-147.7592 -145.70996,469.987 h -307.19827 l 131.30601,-617.7462 z"
       id="path4362"
       sodipodi:nodetypes="ccccc" />
    <path
       style="fill:#d35f5f;fill-opacity:1;stroke:none;stroke-width:0.264583px;stroke-linecap:butt;stroke-linejoin:miter;stroke-opacity:1"
       d="M 637.52985,-147.7592 506.22374,469.987 H 199.0254 l 131.30601,-617.7462 z"
       id="path15179"
       sodipodi:nodetypes="ccccc" />
    <g
       id="g10527"
       transform="translate(-169.04298,4.3094629)">
      <path
         d="M 179.60742,95.871094 154.28711,197.92969 c -2.60846,10.51304 -4.54114,14.84482 -6.14453,16.47851 l -0.01,0.01 -0.01,0.0117 c -0.36337,0.37253 -2.58873,1.66015 -9.41211,1.66015 -9.45989,0 -7.84533,-1.22826 -7.82227,-1.34375 l 0.01,-0.0488 0.01,-0.0469 c 0.64856,-3.42615 1.25125,-6.23973 1.81836,-8.52539 0.7124,-2.87123 1.56643,-7.24823 2.46875,-12.58203 l 1.90821,-11.28125 H 92.603516 l -4.921875,17.72266 -0.03125,0.13085 c -4.985175,20.09204 -6.497149,36.07963 1.066406,45.98047 l 0.02344,0.0293 0.02148,0.0293 c 7.6343,9.83827 23.491061,12.3789 43.904301,12.3789 19.30576,0 35.28878,-3.27598 45.07812,-11.04687 9.78162,-7.76475 16.73004,-22.58966 21.43945,-41.57031 L 226.48828,95.871094 Z"
         id="path45041"
         inkscape:path-effect="#path-effect45086"
         inkscape:original-d="m 214.12918,105.53915 -24.32765,98.04912 q -6.79211,27.37465 -18.0686,36.32606 -11.27649,8.95141 -39.06749,8.95141 -29.56046,0 -36.264275,-8.63915 -6.599709,-8.63915 0.63144,-37.78327 l 2.920642,-10.51269 h 25.709273 q -1.33822,7.91054 -2.31959,11.86582 -0.92972,3.7471 -1.93456,9.05548 -2.57785,12.90669 17.30259,12.90669 11.86582,0 16.3329,-4.57979 4.597,-4.68388 8.62578,-20.92131 l 23.50124,-94.71837 z"
         style="font-size:330.736px;line-height:1.25;font-family:Eurostile;-inkscape-font-specification:Eurostile;letter-spacing:0px;fill:#d35f5f;fill-opacity:1;stroke-width:17.764" />
      <path
         d="M 221.375,71.189453 185.75586,214.74414 h 41.69531 l 13.53711,-54.5625 32.62305,54.5625 h 51.05078 l -44.65234,-72.0918 77.125,-71.462887 h -55.14063 l -50.75195,47.666017 11.82617,-47.666017 z"
         id="path45043"
         inkscape:path-effect="#path-effect45084"
         inkscape:original-d="m 252.07656,79.786299 -12.77048,51.469591 h 11.29368 l 54.7978,-51.469591 h 29.80793 L 268.97065,141.161 309.22263,206.14598 H 278.489 L 245.77778,151.4364 h -11.47883 l -13.57438,54.70958 H 196.74864 L 228.10062,79.786299 Z"
         style="font-size:330.736px;line-height:1.25;font-family:Eurostile;-inkscape-font-specification:Eurostile;letter-spacing:0px;fill:#d35f5f;fill-opacity:1;stroke-width:15.7987" />
      <path
         d="m 385.52734,40.796875 c -23.09722,0 -40.98886,2.780801 -52.23046,9.755859 -0.001,7.56e-4 -0.003,0.0012 -0.004,0.002 l -0.006,0.0039 c -11.77113,7.292721 -19.27822,21.119515 -23.69336,38.914062 -4.26685,17.196974 -5.03399,31.945224 4.0957,40.900394 3.95506,3.87945 10.83338,6.62468 19.66211,8.60156 h -36.70703 l -2.89844,12.69922 0.043,-0.17774 c -4.37175,17.61972 -4.17615,33.35767 5.63086,42.28907 l 0.0215,0.0195 0.0195,0.0176 c 8.76233,7.88789 26.12295,10.58203 48.91211,10.58203 25.15045,0 44.91154,-3.11631 55.30664,-9.70703 l 0.0195,-0.0137 0.0195,-0.0117 c 11.28576,-7.23161 19.25505,-22.68052 24.14063,-42.3711 4.05471,-16.34195 4.47162,-30.81424 -4.49805,-39.48242 -5.54777,-5.4025 -15.27947,-8.38193 -27.97266,-10.125 h 41.35156 l 3.15625,-12.728516 c 4.01183,-16.169074 3.41316,-30.830652 -7.00976,-39.390625 -9.32517,-7.658403 -25.45509,-9.777344 -47.35938,-9.777344 z m 37.83399,72.021485 c 0.008,0.008 0.019,0.0153 0.0273,0.0234 l -0.0469,-0.0449 c 0.007,0.007 0.0124,0.0146 0.0195,0.0215 z M 382.03711,81.707031 c 8.4055,0 11.4124,0.443489 12.45117,0.623047 0.0353,1.438934 -0.10877,3.403247 -0.58203,6.189453 l 0.14844,-0.708984 c -0.23586,0.950633 -0.50214,2.473886 -0.70117,3.867187 l -1.50586,10.535156 c -4.19061,-0.47746 -8.58207,-0.87312 -13.34961,-1.14258 h -0.008 -0.008 c -14.23705,-0.78309 -21.13104,-1.855036 -23.57226,-2.263669 0.12155,-1.456067 0.38091,-3.250699 1.07226,-6.03711 1.4885,-5.999202 3.48803,-8.024723 4.63086,-8.632812 2.90395,-1.491841 9.02453,-2.429688 21.42383,-2.429688 z m -39.92969,58.839849 c 5.65639,0.8371 11.70867,1.51822 18.45899,1.91992 l 14.60742,0.93359 0.0254,0.002 c 6.45522,0.37888 7.57366,0.6378 7.80664,0.6836 -0.0573,1.20601 -0.28548,2.80408 -0.86133,5.125 -2.10677,8.49104 -4.11974,11.24302 -5.27148,11.98828 -1.14918,0.74361 -7.23679,2.29492 -18.77539,2.29492 -11.70787,0 -18.47679,-0.92745 -20.24414,-1.18555 0.002,-0.0674 6.9e-4,-0.12239 0.004,-0.19336 0.0863,-1.90634 0.4911,-4.55052 1.38477,-8.15234 l 0.0391,-0.15625 z"
         id="path45045"
         inkscape:path-effect="#path-effect45088"
         inkscape:original-d="m 429.19095,93.043156 h -26.28471 q 0.28198,-1.97395 0.51398,-2.90898 2.02937,-11.94761 -1.58656,-14.96048 -3.59014,-3.11677 -19.79732,-3.11677 -19.11616,0 -25.91444,3.53234 -6.6944,3.53233 -9.50413,14.85659 -3.32529,13.402094 0.78354,16.103284 4.10883,2.7012 30.55212,4.15568 31.2489,1.76618 38.69088,9.03863 7.54588,7.27245 1.84907,30.23262 -7.01146,28.25866 -19.98233,36.57003 -12.94509,8.20749 -50.13849,8.20749 -33.45327,0 -42.4552,-8.10359 -8.89804,-8.10359 -2.76301,-32.82992 l 1.18498,-5.19461 h 26.18082 l -0.64366,3.01287 q -3.68616,14.85658 0.68357,18.18112 4.36973,3.32456 27.53767,3.32456 18.07724,0 24.01783,-3.84402 5.94059,-3.844 9.39476,-17.76554 2.55196,-10.28534 -0.46717,-13.60989 -2.88946,-3.42843 -15.27996,-4.15567 l -14.62459,-0.93504 q -33.17129,-1.97395 -40.6914,-9.3503 -7.52009,-7.37634 -1.48818,-31.687114 6.16081,-24.83023 19.41757,-33.03772 13.38644,-8.31136 47.15139,-8.31136 31.99879,0 41.23351,7.58412 9.2347,7.58413 3.76989,29.60927 z"
         style="font-size:330.736px;line-height:1.25;font-family:Eurostile;-inkscape-font-specification:Eurostile;letter-spacing:0px;fill:#d35f5f;fill-opacity:1;stroke-width:17.7309" />
      <path
         id="path3195"
         style="font-size:330.736px;line-height:1.25;font-family:Eurostile;-inkscape-font-specification:Eurostile;letter-spacing:0px;fill:#919546;fill-opacity:1;stroke-width:67.1395"
         d="m 813.54688,362.34766 -111.47657,449.2832 h 41.44922 c 3.31767,-10.69982 6.43213,-21.80351 9.30078,-33.36524 L 856.01953,362.34766 Z"
         transform="scale(0.26458333)" />
      <path
         id="path7422"
         style="font-size:330.736px;line-height:1.25;font-family:Eurostile;-inkscape-font-specification:Eurostile;letter-spacing:0px;fill:#919546;fill-opacity:1;stroke-width:59.7116"
         d="m 1194.1914,269.0625 c -9.8399,20.56095 -17.788,43.76578 -24.0742,69.10156 -9.8577,39.73021 -14.7523,75.99098 -9.2031,105.91797 L 1349.8008,269.0625 Z m -91.4062,341.91016 c -7.2104,50.64105 -0.8813,94.33853 28.8808,121.44336 l 0.08,0.0742 0.074,0.0664 c 15.1092,13.60134 37.0021,23.10687 64.502,29.43359 z"
         transform="scale(0.26458333)" />
    </g>
  </g>
</svg>
