<?xml version="1.0" encoding="UTF-8" standalone="no"?>
<!-- Created with Inkscape (http://www.inkscape.org/) -->

<svg
   width="1348.6716mm"
   height="659.40106mm"
   viewBox="0 0 1348.6716 659.40105"
   version="1.1"
   id="svg1157"
   inkscape:version="1.1 (1:1.1+202106031931+af4d65493e)"
   sodipodi:docname="background-letters.svg"
   xmlns:inkscape="http://www.inkscape.org/namespaces/inkscape"
   xmlns:sodipodi="http://sodipodi.sourceforge.net/DTD/sodipodi-0.dtd"
   xmlns="http://www.w3.org/2000/svg"
   xmlns:svg="http://www.w3.org/2000/svg">
  <sodipodi:namedview
     id="namedview1159"
     pagecolor="#ffffff"
     bordercolor="#666666"
     borderopacity="1.0"
     inkscape:pageshadow="2"
     inkscape:pageopacity="0.0"
     inkscape:pagecheckerboard="0"
     inkscape:document-units="mm"
     showgrid="false"
     inkscape:zoom="0.1631514"
     inkscape:cx="2684.623"
     inkscape:cy="1149.2393"
     inkscape:window-width="1366"
     inkscape:window-height="703"
     inkscape:window-x="0"
     inkscape:window-y="0"
     inkscape:window-maximized="1"
     inkscape:current-layer="layer1" />
  <defs
     id="defs1154">
    <inkscape:path-effect
       effect="offset"
       id="path-effect57422"
       is_visible="true"
       lpeversion="1"
       linejoin_type="miter"
       unit="mm"
       offset="15"
       miter_limit="4"
       attempt_force_join="false"
       update_on_knot_move="true" />
    <inkscape:path-effect
       effect="offset"
       id="path-effect57418"
       is_visible="true"
       lpeversion="1"
       linejoin_type="miter"
       unit="mm"
       offset="15"
       miter_limit="4"
       attempt_force_join="false"
       update_on_knot_move="true" />
    <inkscape:path-effect
       effect="offset"
       id="path-effect57420"
       is_visible="true"
       lpeversion="1"
       linejoin_type="miter"
       unit="mm"
       offset="15"
       miter_limit="4"
       attempt_force_join="false"
       update_on_knot_move="true" />
  </defs>
  <g
     inkscape:label="Layer 1"
     inkscape:groupmode="layer"
     id="layer1"
     transform="translate(232.06348,-57.138551)">
    <path
       d="m 198.9707,209.48438 -56.79492,267.90039 h 57.62695 l 19.66602,-92.62305 h 80.78906 c 15.40829,0 29.39361,-2.89811 41.25,-9.51563 l 0.0508,-0.0273 0.0488,-0.0293 c 11.06006,-6.28413 20.16743,-14.33513 26.90625,-24.30859 5.86753,-8.68394 10.38108,-17.44952 13.22656,-26.20703 2.72268,-7.9631 4.97269,-16.31286 6.76758,-25.03516 2.67127,-12.04776 4.14649,-23.22441 4.14649,-32.96679 0,-16.23249 -4.23035,-30.68017 -14.63086,-41.44727 -10.84876,-11.44839 -27.28491,-15.74025 -45.72852,-15.74023 z m 179.05274,15.74023 c 0.024,0.0253 0.0523,0.045 0.0762,0.0703 l -0.15039,-0.15625 c 0.0267,0.0275 0.0476,0.0584 0.0742,0.0859 z m 10.48437,74.41406 c -0.008,0.0359 -0.01,0.0676 -0.0176,0.10352 l 0.0508,-0.24024 c -0.01,0.0466 -0.0236,0.0901 -0.0332,0.13672 z m -6.76758,25.03516 c -0.017,0.0496 -0.0299,0.10274 -0.0469,0.15234 l 0.082,-0.24805 c -0.0103,0.0319 -0.0248,0.0638 -0.0352,0.0957 z M 245.45508,263.27539 h 70.3457 c 12.03955,0 17.91111,1.5266 19.40234,2.39649 0,0 0.17188,1.5925 0.17188,5.4414 0,4.98349 -1.11912,13.39368 -3.7832,25.68945 l -0.0137,0.0625 -0.0137,0.0645 c -2.13999,10.31091 -4.65702,17.35847 -7.20117,21.8789 -2.49607,4.22506 -5.0938,6.71089 -7.48828,8.125 -2.8629,1.59929 -6.31993,2.72875 -10.54688,3.16602 l -0.0273,0.002 -0.0273,0.004 c -5.17533,0.55449 -13.1013,0.86719 -24.09571,0.86719 h -51.22851 z"
       style="font-style:italic;font-weight:bold;font-size:317.199px;line-height:1.25;font-family:Eurostile;-inkscape-font-specification:'Eurostile Bold';letter-spacing:0px;fill:#d35f5f;fill-rule:nonzero;stroke:none;stroke-width:0.555133"
       id="path57126"
       inkscape:linked-fill="path57184"
       inkscape:original-d="m 160.68987,462.38406 h 26.96192 l 19.66634,-92.62211 h 92.9393 q 20.30074,0 33.94029,-7.61278 13.95676,-7.92997 21.88674,-19.66634 7.92997,-11.73636 11.41916,-22.52113 3.80639,-11.10196 6.34398,-23.47272 3.80639,-17.12875 3.80639,-29.81671 0,-20.30074 -10.46757,-31.0855 Q 356.71886,224.4848 332.29453,224.4848 H 211.12451 Z M 315.80018,248.27473 q 19.34914,0 26.96192,4.44078 7.61278,4.44079 7.61278,18.39755 0,9.83317 -4.12359,28.86511 -3.48919,16.81154 -8.88157,26.32751 -5.39239,9.19878 -13.00516,13.63956 -7.29558,4.12359 -16.49435,5.07519 -8.88157,0.95159 -25.69312,0.95159 h -69.78378 l 20.93514,-97.69729 z"
       inkscape:path-effect="#path-effect57418" />
    <path
       d="m 361.87695,236.625 -56.79297,267.89844 h 140.63477 c 18.68515,0 35.49499,-3.67747 49.83594,-11.75196 13.51996,-7.49572 24.66669,-17.02307 33.08789,-28.76171 7.58067,-10.56699 13.48112,-21.17959 17.41211,-31.74415 3.61908,-9.72628 6.47541,-19.40932 8.54101,-29.04882 l 0.002,-0.0137 12.05664,-56.79296 -0.0254,0.11328 c 2.91797,-13.24314 4.47461,-25.61662 4.47461,-36.85156 0,-14.4611 -2.53996,-27.73337 -8.47657,-38.53711 -5.35877,-10.12339 -12.63938,-18.23143 -22.26757,-23.66407 -8.04413,-4.65272 -16.5206,-7.73495 -25.4629,-9.08984 -7.83059,-1.18645 -16.20976,-1.75586 -25.08789,-1.75586 z m 178.48243,10.8457 c 0.0397,0.023 0.0814,0.0395 0.12109,0.0625 l -0.17774,-0.10156 c 0.0203,0.0114 0.0364,0.0276 0.0566,0.0391 z m 22.26757,23.66407 c 0.0276,0.052 0.0624,0.0963 0.0899,0.14843 l -0.14453,-0.26953 c 0.0212,0.0383 0.0336,0.0828 0.0547,0.1211 z m -67.07226,221.63671 c -0.0231,0.0128 -0.0433,0.0282 -0.0664,0.041 l 0.0996,-0.0566 c -0.0106,0.006 -0.0226,0.01 -0.0332,0.0156 z M 408.37305,290.41406 h 81.11914 c 6.30366,0 10.15088,0.97779 12.64062,2.22266 l 0.33008,0.16601 0.33789,0.14844 c 3.03333,1.33467 4.93222,3.00194 6.12305,4.70313 l 0.10547,0.15039 0.10742,0.14648 c 1.789,2.42793 2.89476,4.88029 3.47461,7.43164 0.79395,3.49342 1.21289,7.2421 1.21289,11.26758 0,4.52642 -0.43425,8.93024 -1.29297,13.22656 -5.2e-4,0.003 -0.001,0.005 -0.002,0.008 l -13.23633,62.07812 c -2.64627,11.39248 -5.38952,20.64398 -8.25781,28.10156 l -0.0606,0.15821 -0.0566,0.1582 c -2.40448,6.69819 -5.60786,12.33118 -9.41602,16.95898 -3.38453,3.9197 -7.94182,7.28768 -13.70507,9.80078 -5.56032,2.21742 -13.11048,3.59376 -23.34766,3.59376 h -70.27734 z"
       style="font-style:italic;font-weight:bold;font-size:317.199px;line-height:1.25;font-family:Eurostile;-inkscape-font-specification:'Eurostile Bold';letter-spacing:0px;fill:#d35f5f;stroke:none;stroke-width:7.92998"
       id="path57128"
       inkscape:path-effect="#path-effect57420"
       inkscape:original-d="m 323.59718,489.52345 h 122.12161 q 25.05873,0 42.50468,-9.83317 17.76314,-9.83317 28.2307,-24.42433 10.46758,-14.59115 15.54276,-28.23071 5.07519,-13.63955 7.92998,-26.96191 l 12.05356,-56.77863 q 4.12358,-18.71474 4.12358,-33.6231 0,-19.34913 -6.66118,-31.4027 -6.34397,-12.05356 -16.49435,-17.76314 -9.83317,-5.70958 -20.30074,-7.29558 -10.46756,-1.58599 -22.83833,-1.58599 H 374.03182 Z m 32.03709,-23.78993 40.60148,-190.31941 h 93.2565 q 11.73637,0 19.34914,3.80639 7.92998,3.48919 12.37077,9.83317 4.44078,6.02678 6.02678,13.00516 1.58599,6.97838 1.58599,14.59115 0,8.24718 -1.58599,16.17716 l -13.32236,62.4882 q -4.12359,17.76315 -8.88157,30.13391 -4.44079,12.37076 -12.05357,21.56953 -7.61277,8.88157 -19.34914,13.95676 -11.73636,4.75798 -29.1823,4.75798 z" />
    <path
       d="m 640.74609,276.75195 c -16.9428,0 -31.93808,0.8751 -44.625,2.6875 -13.39906,1.91416 -25.78733,5.76142 -37.17187,11.70117 -12.20383,6.36723 -22.24715,15.66013 -30.48242,27.63868 l -0.0176,0.0273 -0.0195,0.0293 c -8.16406,11.99096 -13.86439,27.16984 -17.51172,44.72265 l -19.6543,91.92579 -0.004,0.0234 c -1.86938,8.87952 -2.85938,17.44045 -2.85938,25.61133 0,20.08099 5.6147,37.15679 18.91016,49.86133 l 0.12304,0.11719 0.12696,0.11523 c 13.33709,12.17735 31.06646,17.24414 51.66601,17.24414 h 38.06446 c 13.94342,0 26.32793,-0.65946 36.83007,-2.0293 l 0.13477,-0.0176 0.13476,-0.0195 c 11.33432,-1.68809 21.84979,-4.86141 31.4629,-9.66796 10.5878,-5.2939 19.22902,-13.14809 26.24023,-23.27539 7.12859,-10.29685 11.98249,-22.97088 15.02148,-37.43165 l 0.006,-0.0273 8.64453,-40.32031 h -57.61718 l -6.71094,30.97265 -0.0234,0.11719 c -1.50612,7.53061 -3.33455,12.62016 -5.35742,16.23242 -1.71767,3.06727 -3.76837,5.04435 -6.0293,6.32227 -2.89021,1.6336 -7.01971,3.06775 -12.88086,3.92969 -6.3415,0.93257 -14.66043,1.42578 -25.73242,1.42578 h -32.03711 c -12.64923,0 -17.50801,-1.78503 -19.77343,-3.71485 -1.28305,-1.09296 -3.29102,-4.0825 -3.29102,-12.05468 0,-7.75512 2.14704,-22.13181 6.9668,-44.76367 l 13.95703,-65.35743 0.004,-0.0156 c 2.11847,-10.01452 4.73067,-16.85989 7.63086,-21.5918 2.63923,-4.3061 5.94465,-7.3511 9.94922,-9.41797 4.66473,-2.40761 10.93711,-4.33432 19.21094,-5.4375 8.74851,-1.16647 20.11586,-1.77343 34.8125,-1.77343 h 15.22461 c 11.79322,0 16.54872,1.64835 17.96289,2.70898 l 0.27734,0.20898 0.28711,0.19532 c 0,0 1.36524,1.8967 1.36524,5.99414 0,3.93567 -0.7234,9.8325 -2.53711,18.49804 l -0.0273,0.13282 -4.68359,24.59961 h 57.2832 l 4.07422,-19.55469 -0.0234,0.10351 c 2.45642,-11.38888 3.82812,-21.66385 3.82812,-30.4414 0,-17.48731 -5.372,-32.70533 -18.41602,-42.86524 -12.20501,-9.71075 -29.97229,-13.36914 -50.50781,-13.36914 z m 72.71289,13.36914 c 0.0309,0.0246 0.0668,0.0437 0.0977,0.0684 l -0.18164,-0.14257 c 0.0301,0.0234 0.0539,0.0508 0.084,0.0742 z"
       style="font-style:italic;font-weight:bold;font-size:317.199px;line-height:1.25;font-family:Eurostile;-inkscape-font-specification:'Eurostile Bold';letter-spacing:0px;fill:#d35f5f;stroke:none;stroke-width:7.92998"
       id="path57130"
       inkscape:path-effect="#path-effect57422"
       inkscape:original-d="m 597.29043,533.45699 q 20.30073,0 34.89189,-1.90319 14.90835,-2.2204 26.96191,-8.24718 12.05356,-6.02678 20.61794,-18.39754 8.56437,-12.37076 12.68796,-32.0371 l 4.75798,-22.20393 H 670.2462 l -4.12359,19.03194 q -2.53759,12.68796 -6.97838,20.61794 -4.44078,7.92997 -11.73636,12.05356 -7.29558,4.12359 -18.08034,5.70958 -10.78477,1.586 -27.91352,1.586 h -32.0371 q -20.93513,0 -29.4995,-7.29558 -8.56438,-7.29558 -8.56438,-23.47273 0,-13.63955 7.29558,-47.89705 l 13.95676,-65.34299 q 3.48919,-16.49435 9.51597,-26.32752 6.02678,-9.83317 15.85995,-14.90835 9.83317,-5.07519 24.10712,-6.97838 14.27396,-1.9032 36.79509,-1.9032 h 15.22555 q 19.34914,0 26.96191,5.70959 7.92998,5.39238 7.92998,18.39754 0,7.92997 -2.85479,21.56953 l -1.2688,6.66118 h 26.96192 l 1.58599,-7.61278 q 3.48919,-16.17714 3.48919,-27.27911 0,-21.25233 -12.68796,-31.0855 -12.68796,-10.15037 -41.23587,-10.15037 h -22.20393 q -24.74152,0 -42.50467,2.53759 -17.76314,2.53759 -32.3543,10.15037 -14.59115,7.61278 -25.05872,22.83833 -10.15037,14.90835 -15.22555,39.33268 l -19.66634,91.98771 q -2.53759,12.05356 -2.53759,22.52113 0,25.37592 14.27396,39.01547 14.59115,13.32236 41.55307,13.32236 z" />
    <path
       id="path61184"
       style="font-style:italic;font-weight:bold;font-size:317.199px;line-height:1.25;font-family:Eurostile;-inkscape-font-specification:'Eurostile Bold';letter-spacing:0px;fill:#919546;fill-opacity:1;stroke-width:7.92999"
       d="m 568.56204,286.72092 c -3.27922,1.31923 -6.4853,2.7876 -9.61286,4.41937 -12.2046,6.36762 -22.24633,15.6612 -30.48082,27.63862 l -0.0175,0.0274 -0.0196,0.0289 c -8.16385,11.99064 -13.86615,27.17127 -17.51367,44.72492 l -19.65409,91.92359 -0.004,0.0238 c -1.86938,8.87952 -2.85977,17.43996 -2.85977,25.61084 0,5.10803 0.36801,10.01925 1.1286,14.71589 2.05304,-0.94187 4.06538,-1.95654 6.02753,-3.06129 13.52172,-7.49674 24.66652,-17.0269 33.08636,-28.76364 7.57991,-10.56596 13.48229,-21.17804 17.41392,-31.74431 3.61976,-9.72807 6.47385,-19.41144 8.53903,-29.04887 l 0.003,-0.0134 12.05661,-56.79292 -0.0254,0.11317 c 2.91798,-13.24314 4.47466,-25.61655 4.47466,-36.8515 0,-8.09807 -0.79799,-15.82279 -2.54143,-22.95053 z m -73.00589,206.05202 c -0.023,0.0127 -0.043,0.028 -0.0661,0.0408 l 0.0997,-0.0563 c -0.0106,0.006 -0.023,0.01 -0.0336,0.0156 z" />
    <path
       id="path109176"
       style="font-style:italic;font-weight:bold;font-size:317.199px;line-height:1.25;font-family:Eurostile;-inkscape-font-specification:'Eurostile Bold';letter-spacing:0px;fill:#919546;fill-opacity:1;fill-rule:nonzero;stroke:none;stroke-width:0.555133"
       d="M 361.87647,236.62423 331.53,379.77208 c 3.46787,-1.25443 6.80152,-2.75204 9.97768,-4.52479 l 0.0507,-0.0274 0.0491,-0.0289 c 11.0615,-6.28493 20.16771,-14.33819 26.90585,-24.31066 5.8669,-8.68301 10.38086,-17.44688 13.22658,-26.20512 2.72268,-7.9631 4.97266,-16.31287 6.76755,-25.03516 2.67134,-12.04808 4.14651,-23.22615 4.14651,-32.96854 0,-11.04137 -1.96311,-21.25375 -6.48849,-30.04726 z m 26.63093,63.0158 c -0.008,0.0359 -0.01,0.0674 -0.0176,0.10335 l 0.0512,-0.23978 c -0.01,0.0466 -0.024,0.0898 -0.0336,0.13643 z m -6.76755,25.03516 c -0.017,0.0496 -0.0295,0.10284 -0.0465,0.15244 l 0.0817,-0.24804 c -0.0103,0.0319 -0.0248,0.0637 -0.0351,0.0956 z" />
    <path
       style="fill:#d35f5f;fill-opacity:1;stroke:none;stroke-width:0.264583px;stroke-linecap:butt;stroke-linejoin:miter;stroke-opacity:1"
       d="M 206.44089,73.51335 75.13486,691.25955 h -307.19834 l 131.30601,-617.7462 z"
       id="path4362"
       sodipodi:nodetypes="ccccc" />
    <path
       style="fill:#d35f5f;fill-opacity:1;stroke:none;stroke-width:0.264583px;stroke-linecap:butt;stroke-linejoin:miter;stroke-opacity:1"
       d="M 1116.6081,73.51335 985.30198,691.25955 H 678.10364 L 809.40965,73.51335 Z"
       id="path15179"
       sodipodi:nodetypes="ccccc" />
    <path
       style="display:inline;fill:#ffffff;stroke:#ffffff;stroke-width:0.264583px;stroke-linecap:butt;stroke-linejoin:miter;stroke-opacity:1;fill-opacity:1"
       d="M 95.911721,695.03844 137.20928,500.74868 h 57.24996 l -45.528,215.76363"
       id="path101243"
       sodipodi:nodetypes="cccc" />
    <path
       id="path16987"
       style="display:inline;fill:#ffffff;stroke:#ffffff;stroke-width:0.264583px;stroke-linecap:butt;stroke-linejoin:miter;stroke-opacity:1;fill-opacity:1"
       d="M 735.62213,57.270842 693.65466,254.71047 c 12.77247,2.726 24.95698,7.6117 35.25726,15.77319 -0.0805,-0.0629 -0.14181,-0.13622 -0.2227,-0.19895 l 0.48626,0.38292 c -0.0843,-0.0674 -0.17894,-0.11695 -0.26356,-0.18397 6.34564,4.95986 11.42508,10.59405 15.42439,16.68426 L 792.87185,57.270842 Z" />
  </g>
</svg>
