<?xml version="1.0" encoding="UTF-8" standalone="no"?>
<!-- Created with Inkscape (http://www.inkscape.org/) -->

<svg
   width="34.416855mm"
   height="7.1966438mm"
   viewBox="0 0 34.416855 7.1966438"
   version="1.1"
   id="svg1155"
   preserveAspectRatio="xMinYMid meet"
   xmlns="http://www.w3.org/2000/svg"
   xmlns:svg="http://www.w3.org/2000/svg">
  <defs
     id="defs1152" />
  <g
     id="layer1"
     transform="translate(-91.156438,-130.5677)">
    <g
       aria-label="stack"
       id="text462600"
       style="font-size:10.5833px;line-height:1.25;font-family:'Eurostile Extended';-inkscape-font-specification:'Eurostile Extended';letter-spacing:0px;display:inline;fill:#ffffff;stroke-width:0.264583">
      <path
         d="m 95.68609,133.34053 -1.460495,-0.0423 q -0.465665,0 -0.761998,0.0106 -0.285749,0.0106 -0.656164,0.0635 -0.359833,0.0529 -0.582082,0.20108 -0.211666,0.13758 -0.211666,0.47625 0,0.45508 0.222249,0.60324 0.232833,0.13759 0.719665,0.13759 l 1.280579,0.0318 h 1.386412 q 0.920747,0 1.365246,0.29633 0.444499,0.28575 0.444499,1.143 0,0.98424 -0.529165,1.23824 -0.518582,0.24342 -1.608662,0.24342 l -1.386412,0.0212 q -0.634998,0 -0.973664,-0.0212 -0.328082,-0.0106 -0.825497,-0.10583 -0.486832,-0.10584 -0.719665,-0.43392 -0.232832,-0.33867 -0.232832,-0.97366 l 0.01058,-0.22225 h 0.751414 l 0.01058,0.11641 q 0,0.508 0.211666,0.6985 0.211666,0.1905 0.740831,0.24342 l 1.301746,0.0423 h 0.222249 0.190499 q 0.656165,0 1.174747,-0.0529 0.518581,-0.0635 0.687914,-0.1905 0.179916,-0.13758 0.179916,-0.48683 0,-0.52916 -0.264582,-0.71966 -0.254,-0.1905 -0.825498,-0.1905 l -1.344079,-0.0106 h -1.280579 q -0.836081,0 -1.269996,-0.26459 -0.433915,-0.26458 -0.433915,-1.05833 0,-0.74083 0.423332,-1.07949 0.423332,-0.34925 1.174746,-0.34925 l 1.407579,-0.0635 q 0.391582,0 0.761997,0.0106 0.370416,0 0.836081,0.0423 0.772581,0 1.09008,0.32809 0.328082,0.3175 0.328082,1.07949 h -0.740831 q -0.04233,-0.42333 -0.201082,-0.56091 -0.148167,-0.14817 -0.613832,-0.20108 z"
         id="path1233" />
      <path
         d="m 103.30606,133.35111 h -3.439574 v 2.39182 q 0,0.83609 0.285754,1.10067 0.28574,0.26458 1.12183,0.26458 0.76199,0 1.12183,-0.17992 0.35983,-0.1905 0.35983,-0.86783 l -0.0106,-0.56091 h 0.68792 q 0,1.37583 -0.33867,1.82033 -0.32808,0.44449 -1.73566,0.44449 -1.16416,0 -1.70391,-0.29633 -0.529165,-0.30691 -0.529165,-1.37583 v -0.34925 -2.39182 h -1.206496 v -0.635 h 1.206496 v -1.12183 h 0.740831 v 1.12183 h 3.439574 z"
         id="path1235" />
      <path
         d="m 109.63485,137.10818 q -0.1905,0.32808 -0.46566,0.46567 -0.26458,0.127 -0.67733,0.15875 l -1.36525,0.0317 h -0.64558 q -1.31233,0 -1.74624,-0.37041 -0.42334,-0.381 -0.42334,-1.11125 0,-0.80433 0.29634,-1.13241 0.29633,-0.32808 0.82549,-0.381 0.53975,-0.0529 0.9525,-0.0635 0.41275,-0.0106 0.77258,-0.0106 l 1.397,0.0423 q 0.381,0 0.61383,0.11642 0.23283,0.11641 0.46566,0.43391 v -0.52916 q 0,-0.45508 -0.0741,-0.75142 -0.0741,-0.30691 -0.32808,-0.47624 -0.254,-0.16934 -0.86783,-0.20109 -0.60325,-0.0317 -0.89958,-0.0317 -0.35984,0 -0.6985,0.0106 -0.33867,0 -0.74083,0.0529 -0.39158,0.0529 -0.53975,0.254 -0.14817,0.20108 -0.14817,0.59267 h -0.80433 q 0,-0.79375 0.33867,-1.11125 0.34925,-0.3175 1.03716,-0.381 0.6985,-0.0741 1.28058,-0.0741 0.71967,0 1.19591,0.0317 0.47625,0.0212 1.02658,0.16933 0.55034,0.14817 0.75142,0.59267 0.21166,0.43391 0.21166,1.15358 v 3.1009 h -0.74083 z m -2.49766,0 h 0.21167 q 0.53975,0 0.9525,-0.0212 0.41275,-0.0317 0.86783,-0.15875 0.46566,-0.127 0.46566,-0.71966 0,-0.508 -0.3175,-0.64558 -0.30691,-0.14817 -0.67733,-0.17992 -0.35983,-0.0423 -0.81491,-0.0423 l -0.65617,0.0106 q -0.76199,0 -1.07949,0.0318 -0.30692,0.0317 -0.56092,0.127 -0.254,0.0952 -0.33866,0.29633 -0.0847,0.1905 -0.0847,0.47625 0,0.381 0.22225,0.59267 0.23283,0.21166 0.94191,0.21166 z"
         id="path1237" />
      <path
         d="m 115.86841,137.74318 -0.8255,0.0106 q -1.64041,0 -2.38124,-0.47625 -0.73025,-0.47625 -0.73025,-2.03199 0,-0.61383 0.0423,-0.99483 0.0529,-0.381 0.31749,-0.80433 0.27517,-0.43392 0.889,-0.62442 0.61383,-0.1905 1.42875,-0.1905 l 0.4445,0.0106 q 1.07949,0 1.64041,0.0741 0.56091,0.0635 0.99483,0.45508 0.43391,0.39158 0.43391,1.28058 h -0.77258 q 0,-0.33866 -0.10583,-0.56091 -0.10583,-0.23284 -0.32808,-0.34925 -0.22225,-0.127 -0.64558,-0.17992 -0.42334,-0.0635 -1.09008,-0.0635 h -0.127 q -0.77258,0 -1.0795,0.0423 -0.29633,0.0317 -0.65617,0.17991 -0.34924,0.14817 -0.45508,0.46567 -0.0953,0.3175 -0.11641,0.58208 -0.0212,0.254 -0.0212,0.53975 v 0.14816 q 0,0.97367 0.254,1.32292 0.26458,0.33866 0.70908,0.41274 0.4445,0.0635 0.81491,0.0847 0.37042,0.0212 0.79375,0.0212 0.23283,0 0.55033,0 0.32809,-0.0106 0.9525,-0.15875 0.62442,-0.14817 0.62442,-1.02658 h 0.77258 q 0,1.05833 -0.60325,1.44991 -0.59267,0.381 -1.72508,0.381 z"
         id="path1239" />
      <path
         d="m 125.23463,132.71611 -3.66182,2.33891 4.00048,2.63524 h -1.22766 l -3.4819,-2.34949 h -0.4445 v 2.34949 h -0.74083 v -7.12256 h 0.74083 v 4.13807 h 0.4445 l 3.12207,-1.98966 z"
         id="path1241" />
    </g>
  </g>
</svg>
