<?xml version="1.0" encoding="UTF-8" standalone="no"?>
<!-- Created with Inkscape (http://www.inkscape.org/) -->

<svg
   width="169.33333mm"
   height="13.151752mm"
   viewBox="0 0 169.33333 13.151752"
   version="1.1"
   id="svg1434"
   inkscape:version="1.1 (1:1.1+202106031931+af4d65493e)"
   sodipodi:docname="processing-bar-middle.svg"
   xmlns:inkscape="http://www.inkscape.org/namespaces/inkscape"
   xmlns:sodipodi="http://sodipodi.sourceforge.net/DTD/sodipodi-0.dtd"
   xmlns="http://www.w3.org/2000/svg"
   xmlns:svg="http://www.w3.org/2000/svg">
  <sodipodi:namedview
     id="namedview1436"
     pagecolor="#ffffff"
     bordercolor="#666666"
     borderopacity="1.0"
     inkscape:pageshadow="2"
     inkscape:pageopacity="0.0"
     inkscape:pagecheckerboard="0"
     inkscape:document-units="mm"
     showgrid="false"
     inkscape:zoom="0.46146184"
     inkscape:cx="-48.758094"
     inkscape:cy="-271.96182"
     inkscape:window-width="1366"
     inkscape:window-height="703"
     inkscape:window-x="0"
     inkscape:window-y="0"
     inkscape:window-maximized="1"
     inkscape:current-layer="layer1" />
  <defs
     id="defs1431" />
  <g
     inkscape:label="Layer 1"
     inkscape:groupmode="layer"
     id="layer1"
     transform="translate(-10.79205,-220.19913)">
    <path
       style="fill:none;stroke:#ffffff;stroke-width:0.529167;stroke-linecap:butt;stroke-linejoin:miter;stroke-miterlimit:4;stroke-dasharray:none;stroke-opacity:1"
       d="M 10.79205,220.46371 H 180.12538"
       id="path132603" />
    <g
       aria-label="processing"
       id="text134326"
       style="font-size:10.5833px;line-height:1.25;font-family:EuroStyle;-inkscape-font-specification:EuroStyle;letter-spacing:0px;fill:#ffffff;stroke-width:0.264583">
      <path
         d="m 76.192502,224.51806 h 0.656289 l -0.02067,0.59169 q 0.245462,-0.37207 0.591693,-0.50901 0.346231,-0.13694 0.847491,-0.13694 0.782896,0 1.178219,0.26354 0.397907,0.26097 0.519347,0.74414 0.121439,0.48059 0.121439,1.28933 0,0.60978 -0.05426,1.00768 -0.05426,0.39791 -0.227376,0.7028 -0.173115,0.30489 -0.527098,0.47284 -0.353982,0.16536 -0.937924,0.16536 -0.511595,0 -0.883664,-0.12144 -0.372069,-0.12402 -0.607196,-0.48059 v 2.49855 h -0.656289 z m 0.666624,2.11614 v 0.34881 q 0,0.5426 0.08527,0.86816 0.08527,0.32557 0.35915,0.5116 0.276468,0.18603 0.813901,0.18603 0.586526,0 0.855242,-0.17828 0.268717,-0.17828 0.335896,-0.49609 0.06976,-0.32039 0.06976,-0.93276 v -0.26613 q 0,-0.64854 -0.06201,-0.9741 -0.06201,-0.32556 -0.328144,-0.50643 -0.266133,-0.18086 -0.847491,-0.18086 -0.57619,0 -0.850074,0.16536 -0.273884,0.16278 -0.353983,0.49093 -0.07751,0.32814 -0.07751,0.96376 z"
         id="path1707" />
      <path
         d="m 80.435124,224.51806 h 0.656288 l -0.01034,0.51934 q 0.387572,-0.62528 1.237647,-0.62528 1.312577,0 1.312577,1.60713 h -0.656289 q 0,-0.52451 -0.157612,-0.78548 -0.157613,-0.26096 -0.645954,-0.26096 -1.059363,0 -1.059363,1.05936 v 3.02565 h -0.676959 z"
         id="path1709" />
      <path
         d="m 83.938775,226.65487 q 0,-0.82424 0.142109,-1.29449 0.144694,-0.47026 0.558104,-0.69763 0.41341,-0.22996 1.224727,-0.22996 0.873329,0 1.315161,0.1912 0.444416,0.18862 0.607197,0.64854 0.16278,0.45992 0.16278,1.341 0,0.925 -0.0956,1.4211 -0.09302,0.49609 -0.50126,0.79839 -0.405659,0.29973 -1.286739,0.29973 -0.844907,0 -1.294491,-0.1602 -0.446999,-0.16278 -0.640785,-0.59944 -0.191202,-0.43667 -0.191202,-1.28416 z m 0.687294,0 v 0.3824 q 0,1.04645 0.273884,1.34359 0.193786,0.1912 0.731219,0.1912 h 0.328145 q 0.43408,0 0.689878,-0.0698 0.255797,-0.0698 0.397907,-0.27906 0.144694,-0.20929 0.170532,-0.62528 0.01292,-0.36173 0.01292,-1.03869 0,-0.65887 -0.05684,-0.96376 -0.05426,-0.30489 -0.291971,-0.45217 -0.235127,-0.14986 -0.775144,-0.14986 h -0.147277 q -0.60978,0 -0.883665,0.11368 -0.2713,0.11369 -0.361733,0.41858 -0.08785,0.30489 -0.08785,0.98185 z"
         id="path1711" />
      <path
         d="m 91.589446,227.39642 h 0.676959 q 0,0.69763 -0.191202,1.06195 -0.188619,0.36173 -0.594277,0.49609 -0.405659,0.13436 -1.129127,0.13436 -0.707965,0 -1.113623,-0.13952 -0.405659,-0.14211 -0.596861,-0.43409 -0.188619,-0.29455 -0.240295,-0.71054 -0.04909,-0.416 -0.04909,-1.17047 0,-0.80098 0.167948,-1.26349 0.167948,-0.46508 0.602028,-0.68471 0.436665,-0.2222 1.229895,-0.2222 0.873329,0 1.346167,0.28163 0.475422,0.27905 0.475422,1.10587 v 0.14728 h -0.656289 q 0,-0.41083 -0.10852,-0.62011 -0.105936,-0.20929 -0.33848,-0.28681 -0.229959,-0.0775 -0.643369,-0.0775 -0.617531,0 -0.899167,0.11885 -0.281636,0.11886 -0.374653,0.43408 -0.09302,0.31265 -0.09302,0.99219 v 0.45475 q 0,0.60203 0.06718,0.90692 0.06976,0.30489 0.335896,0.46767 0.266132,0.16019 0.837155,0.16019 0.545185,0 0.803566,-0.0698 0.258381,-0.0724 0.372069,-0.31522 0.113688,-0.24547 0.113688,-0.7674 z"
         id="path1713" />
      <path
         d="m 95.917333,227.67031 h 0.710549 q 0,0.6382 -0.232543,0.95084 -0.22996,0.31006 -0.627867,0.40049 -0.397907,0.0879 -1.07745,0.0879 -0.638202,0 -1.036109,-0.11369 -0.395324,-0.11368 -0.612364,-0.3669 -0.214457,-0.25579 -0.299723,-0.66921 -0.08268,-0.41599 -0.08268,-1.07228 0,-0.89916 0.118856,-1.39526 0.118855,-0.49867 0.532265,-0.76739 0.415994,-0.2713 1.27382,-0.2713 0.855243,0 1.284156,0.17828 0.428913,0.1757 0.586525,0.61237 0.160197,0.43408 0.173116,1.31516 v 0.3514 h -3.260773 q 0,0.62786 0.05684,0.95084 0.05943,0.32298 0.320393,0.51676 0.263549,0.19379 0.839739,0.19379 h 0.180867 q 0.568439,0 0.86041,-0.13436 0.291971,-0.13694 0.291971,-0.61753 z m 0.01292,-1.28933 q 0,-0.61236 -0.0801,-0.89658 -0.07751,-0.28422 -0.348815,-0.39791 -0.268716,-0.11368 -0.862994,-0.11368 -0.52193,0 -0.79323,0.1266 -0.271301,0.12403 -0.374653,0.42117 -0.103353,0.29713 -0.103353,0.8604 z"
         id="path1715" />
      <path
         d="m 100.71289,225.69111 h -0.67696 q 0,-0.43667 -0.276465,-0.57619 -0.276468,-0.14211 -0.762225,-0.14211 h -0.338479 q -0.48059,0 -0.728636,0.14211 -0.245462,0.13952 -0.245462,0.55552 0,0.28163 0.05426,0.42891 0.05426,0.14469 0.19637,0.21446 0.14211,0.0672 0.428913,0.0879 0.465086,0.0103 0.91467,0.0207 0.449583,0.0103 0.790644,0.10852 0.34107,0.0982 0.55552,0.37723 0.21446,0.27905 0.21446,0.80615 0,0.62529 -0.22996,0.92759 -0.22738,0.29972 -0.625283,0.38499 -0.395323,0.0827 -1.059363,0.0827 -0.604613,0 -1.010272,-0.0723 -0.403074,-0.0724 -0.676959,-0.34107 -0.2713,-0.2713 -0.2713,-0.82423 0,-0.17829 0.01033,-0.25322 h 0.676959 q 0,0.40566 0.100769,0.61237 0.103353,0.20412 0.328144,0.27905 0.224792,0.0723 0.651121,0.0723 h 0.157613 q 0.80615,0 1.059363,-0.18086 0.201533,-0.14211 0.201533,-0.65629 0,-0.447 -0.209284,-0.56586 -0.209289,-0.12144 -0.648537,-0.12144 h -0.276468 q -0.0155,0 -0.06201,-0.0103 -0.04651,-0.0103 -0.06459,-0.0103 -0.669208,-0.0413 -0.883664,-0.062 -0.214457,-0.0232 -0.46767,-0.13436 -0.253214,-0.11368 -0.397908,-0.36173 -0.144693,-0.25063 -0.144693,-0.68213 0,-0.80873 0.328144,-1.03611 0.457335,-0.32814 1.47019,-0.32814 0.560687,0 0.96893,0.0878 0.408247,0.0853 0.676957,0.36432 0.2713,0.27646 0.2713,0.80615 z"
         id="path1717" />
      <path
         d="m 105.02011,225.69111 h -0.67696 q 0,-0.43667 -0.27647,-0.57619 -0.27647,-0.14211 -0.76222,-0.14211 h -0.33848 q -0.48059,0 -0.72864,0.14211 -0.24546,0.13952 -0.24546,0.55552 0,0.28163 0.0543,0.42891 0.0543,0.14469 0.19637,0.21446 0.14211,0.0672 0.42891,0.0879 0.46509,0.0103 0.91467,0.0207 0.44959,0.0103 0.79065,0.10852 0.34106,0.0982 0.55552,0.37723 0.21446,0.27905 0.21446,0.80615 0,0.62529 -0.22996,0.92759 -0.22738,0.29972 -0.62529,0.38499 -0.39532,0.0827 -1.05936,0.0827 -0.60461,0 -1.01027,-0.0723 -0.40308,-0.0724 -0.67696,-0.34107 -0.2713,-0.2713 -0.2713,-0.82423 0,-0.17829 0.0103,-0.25322 h 0.67696 q 0,0.40566 0.10077,0.61237 0.10336,0.20412 0.32815,0.27905 0.22479,0.0723 0.65112,0.0723 h 0.15761 q 0.80615,0 1.05936,-0.18086 0.20154,-0.14211 0.20154,-0.65629 0,-0.447 -0.20929,-0.56586 -0.20929,-0.12144 -0.64853,-0.12144 h -0.27647 q -0.0155,0 -0.062,-0.0103 -0.0465,-0.0103 -0.0646,-0.0103 -0.66921,-0.0413 -0.88366,-0.062 -0.21446,-0.0232 -0.46767,-0.13436 -0.25322,-0.11368 -0.39791,-0.36173 -0.14469,-0.25063 -0.14469,-0.68213 0,-0.80873 0.32814,-1.03611 0.45733,-0.32814 1.47019,-0.32814 0.56069,0 0.96893,0.0878 0.40824,0.0853 0.67696,0.36432 0.2713,0.27646 0.2713,0.80615 z"
         id="path1719" />
      <path
         d="m 106.24742,222.56986 v 0.75189 h -0.68729 v -0.75189 z m 0,6.48796 h -0.68729 v -4.53976 h 0.68729 z"
         id="path1721" />
      <path
         d="m 106.61949,224.51806 h 0.61236 v 0.59169 q 0.25839,-0.39791 0.64337,-0.54777 0.38499,-0.14986 0.91209,-0.14986 0.62011,0 0.9741,0.15244 0.35656,0.15245 0.51676,0.5116 0.1602,0.35915 0.1602,0.97668 v 3.00498 h -0.6873 v -2.9533 q 0,-0.45992 -0.0853,-0.69763 -0.0853,-0.23771 -0.3204,-0.3359 -0.23254,-0.0982 -0.70538,-0.0982 -1.34358,0 -1.34358,1.30224 v 2.78277 h -0.67696 z"
         id="path1723" />
      <path
         d="m 114.72491,224.51806 v 4.83689 q 0,0.67955 -0.21445,1.05162 -0.21446,0.37207 -0.64079,0.51159 -0.42633,0.13953 -1.13429,0.13953 -0.63304,0 -1.00511,-0.10077 -0.37207,-0.10077 -0.56844,-0.42116 -0.19378,-0.31781 -0.19378,-0.94826 h 0.64595 q 0.0155,0.40049 0.11369,0.59944 0.10077,0.19896 0.31264,0.26355 0.21187,0.0672 0.62012,0.0672 0.51417,0 0.80356,-0.0724 0.28939,-0.0698 0.447,-0.31264 0.15761,-0.24029 0.15761,-0.72605 v -0.9095 q -0.19895,0.37982 -0.57102,0.49609 -0.37207,0.11627 -0.91984,0.11627 -0.69763,0 -1.08778,-0.25063 -0.39016,-0.25321 -0.53485,-0.71313 -0.1447,-0.45992 -0.1447,-1.16272 0,-0.63303 0.0491,-1.06194 0.0517,-0.42892 0.23254,-0.75965 0.18087,-0.33072 0.55552,-0.51417 0.37465,-0.18345 1.00252,-0.18345 0.50901,0 0.86041,0.13952 0.35398,0.13694 0.59169,0.50643 l -0.0336,-0.59169 z m -3.20651,2.42361 q 0,0.62012 0.062,0.93534 0.0646,0.31523 0.3359,0.49351 0.2713,0.17828 0.86299,0.17828 0.55552,0 0.87075,-0.2222 0.31522,-0.22221 0.3669,-0.76223 0.031,-0.37982 0.031,-0.78289 0,-0.66146 -0.0646,-0.99994 -0.062,-0.33848 -0.3359,-0.54002 -0.2713,-0.20412 -0.86816,-0.20412 -0.52451,0 -0.79065,0.11627 -0.26355,0.11628 -0.3669,0.40566 -0.10335,0.28939 -0.10335,0.85266 z"
         id="path1725" />
    </g>
    <path
       style="fill:none;stroke:#ffffff;stroke-width:0.374178;stroke-linecap:butt;stroke-linejoin:miter;stroke-miterlimit:4;stroke-dasharray:none;stroke-opacity:1"
       d="m 53.12538,233.16379 h 84.66667"
       id="path136346" />
  </g>
</svg>
