<?xml version="1.0" encoding="UTF-8" standalone="no"?>
<!-- Created with Inkscape (http://www.inkscape.org/) -->

<svg
   width="30.396959mm"
   height="189.83286mm"
   viewBox="0 0 30.396959 189.83286"
   version="1.1"
   id="svg2208"
   xmlns="http://www.w3.org/2000/svg"
   xmlns:svg="http://www.w3.org/2000/svg">
  <defs
     id="defs2205" />
  <g
     id="layer1"
     transform="translate(-202.67797,-71.93107)">
    <g
       aria-label="Processing Day Coimbra 2021"
       transform="rotate(90)"
       id="text223282"
       style="font-size:10.5833px;line-height:1.25;font-family:'Eurostile Extended';-inkscape-font-specification:'Eurostile Extended';letter-spacing:0px;display:inline;fill:#ffffff;stroke-width:0.264583">
      <path
         d="m 80.101861,-230.99002 q 0,0.60325 -0.08467,1.06891 -0.08467,0.46567 -0.338665,0.71967 -0.243416,0.254 -0.613832,0.38099 -0.370415,0.11642 -1.111246,0.11642 H 73.01105 v 2.76224 h -0.857247 v -7.05906 h 5.852564 q 1.15358,0 1.619245,0.43392 0.476249,0.42333 0.476249,1.57691 z m -0.888998,0.0423 q 0,-0.74083 -0.275165,-1.03716 -0.275166,-0.29633 -1.015997,-0.29633 H 73.01105 v 2.86807 h 4.423819 q 1.05833,0 1.418162,-0.26458 0.359832,-0.26458 0.359832,-1.27 z"
         id="path2412" />
      <path
         d="m 82.186758,-230.03752 q 0.148166,-0.4445 0.571498,-0.6985 0.433916,-0.254 1.407579,-0.254 1.418162,0 1.979077,0.35983 0.571498,0.34925 0.571498,1.67216 l -0.01058,0.23283 h -0.730248 q 0,-0.94191 -0.296332,-1.26999 -0.285749,-0.33867 -1.238246,-0.33867 h -0.253999 q -1.079497,0 -1.545162,0.30692 -0.455082,0.29633 -0.455082,1.30174 v 2.78341 h -0.740831 v -4.97415 h 0.740831 z"
         id="path2414" />
      <path
         d="m 90.843893,-230.97944 q 1.269996,0 1.904994,0.127 0.634998,0.127 1.015997,0.64558 0.391582,0.51858 0.391582,1.68275 0,1.76741 -0.677332,2.21191 -0.677331,0.4445 -2.645824,0.4445 -1.746245,0 -2.476493,-0.43392 -0.730247,-0.43392 -0.730247,-2.07433 0,-1.16416 0.338665,-1.77799 0.338666,-0.62442 1.05833,-0.70908 0.719665,-0.0952 1.047747,-0.10584 0.328082,-0.0106 0.772581,-0.0106 z m 0,4.45557 q 1.396995,0 1.95791,-0.24342 0.571498,-0.24341 0.571498,-1.42874 0,-0.92075 -0.201082,-1.43933 -0.1905,-0.51858 -0.751415,-0.59266 -0.550331,-0.0741 -0.888997,-0.0847 -0.328082,-0.0106 -0.783164,-0.0106 h -0.222249 q -1.227663,0 -1.672161,0.32808 -0.433916,0.32808 -0.433916,1.56633 0,1.18533 0.455082,1.55574 0.455082,0.35983 1.682745,0.35983 z"
         id="path2416" />
      <path
         d="m 99.511595,-225.88887 -0.825498,0.0106 q -1.640411,0 -2.381242,-0.47625 -0.730248,-0.47624 -0.730248,-2.03199 0,-0.61383 0.04233,-0.99483 0.05292,-0.381 0.317499,-0.80433 0.275166,-0.43392 0.888998,-0.62442 0.613831,-0.19049 1.428745,-0.19049 l 0.444499,0.0106 q 1.079496,0 1.640409,0.0741 0.56092,0.0635 0.99483,0.45508 0.43392,0.39159 0.43392,1.28058 h -0.77258 q 0,-0.33866 -0.10584,-0.56091 -0.10583,-0.23283 -0.32808,-0.34925 -0.22225,-0.127 -0.64558,-0.17992 -0.423332,-0.0635 -1.09008,-0.0635 h -0.126999 q -0.772581,0 -1.079497,0.0423 -0.296332,0.0317 -0.656164,0.17991 -0.349249,0.14817 -0.455082,0.46567 -0.09525,0.3175 -0.116417,0.58208 -0.02117,0.254 -0.02117,0.53975 v 0.14816 q 0,0.97367 0.253999,1.32292 0.264582,0.33866 0.709081,0.41274 0.444499,0.0635 0.814914,0.0847 0.370416,0.0212 0.793748,0.0212 0.232832,0 0.550331,0 0.328082,-0.0106 0.952502,-0.15875 0.62441,-0.14817 0.62441,-1.02658 h 0.77258 q 0,1.05833 -0.60325,1.44991 -0.59266,0.381 -1.725075,0.381 z"
         id="path2418" />
      <path
         d="m 104.96199,-226.61912 q 0.16934,0.0318 0.53975,0.0635 0.37042,0.0318 0.87842,0.0318 h 0.40216 q 0.55033,0 0.86783,-0.0318 0.3175,-0.0317 0.5715,-0.13758 0.254,-0.11642 0.37042,-0.29633 0.11641,-0.17992 0.13758,-0.4445 h 0.78316 q 0,0.98424 -0.79374,1.28058 -0.78317,0.28575 -2.032,0.28575 -1.36524,0 -2.02141,-0.11642 -0.65616,-0.127 -1.0795,-0.65617 -0.41274,-0.53974 -0.41274,-1.77799 0,-1.53458 0.58208,-2.05316 0.59266,-0.52916 2.13782,-0.52916 l 0.508,0.0106 q 1.19592,0 1.79916,0.13758 0.61383,0.127 0.96308,0.64558 0.35984,0.51858 0.35984,1.651 l -0.0106,0.254 h -5.59856 q 0,0.73024 0.20108,1.14299 0.20108,0.40217 0.84666,0.53975 z m 1.74625,-3.71474 h -0.58208 q -0.61383,0 -1.09008,0.0741 -0.47625,0.0635 -0.71967,0.26458 -0.23283,0.20108 -0.30691,0.46566 -0.0741,0.254 -0.0741,0.59267 h 4.81541 q 0,-0.32808 -0.0635,-0.58208 -0.0635,-0.254 -0.254,-0.42333 -0.1905,-0.17992 -0.60325,-0.28575 -0.40217,-0.10584 -1.12183,-0.10584 z"
         id="path2420" />
      <path
         d="m 115.40771,-230.29152 -1.4605,-0.0423 q -0.46566,0 -0.76199,0.0106 -0.28575,0.0106 -0.65617,0.0635 -0.35983,0.0529 -0.58208,0.20108 -0.21167,0.13758 -0.21167,0.47625 0,0.45508 0.22225,0.60325 0.23284,0.13758 0.71967,0.13758 l 1.28058,0.0318 h 1.38641 q 0.92075,0 1.36524,0.29633 0.4445,0.28575 0.4445,1.143 0,0.98424 -0.52916,1.23824 -0.51858,0.24342 -1.60866,0.24342 l -1.38642,0.0212 q -0.63499,0 -0.97366,-0.0212 -0.32808,-0.0106 -0.8255,-0.10583 -0.48683,-0.10584 -0.71966,-0.43392 -0.23283,-0.33867 -0.23283,-0.97366 l 0.0106,-0.22225 h 0.75141 l 0.0106,0.11641 q 0,0.508 0.21166,0.6985 0.21167,0.1905 0.74083,0.24342 l 1.30175,0.0423 h 0.22225 0.1905 q 0.65616,0 1.17475,-0.0529 0.51858,-0.0635 0.68791,-0.1905 0.17992,-0.13758 0.17992,-0.48683 0,-0.52916 -0.26459,-0.71966 -0.254,-0.1905 -0.82549,-0.1905 l -1.34408,-0.0106 h -1.28058 q -0.83608,0 -1.27,-0.26459 -0.43391,-0.26458 -0.43391,-1.05833 0,-0.74083 0.42333,-1.07949 0.42333,-0.34925 1.17474,-0.34925 l 1.40758,-0.0635 q 0.39159,0 0.762,0.0106 0.37042,0 0.83608,0.0423 0.77258,0 1.09008,0.32809 0.32808,0.3175 0.32808,1.07949 h -0.74083 q -0.0423,-0.42333 -0.20108,-0.56091 -0.14817,-0.14817 -0.61383,-0.20108 z"
         id="path2422" />
      <path
         d="m 122.95359,-230.29152 -1.46049,-0.0423 q -0.46567,0 -0.762,0.0106 -0.28575,0.0106 -0.65617,0.0635 -0.35983,0.0529 -0.58208,0.20108 -0.21166,0.13758 -0.21166,0.47625 0,0.45508 0.22225,0.60325 0.23283,0.13758 0.71966,0.13758 l 1.28058,0.0318 h 1.38641 q 0.92075,0 1.36525,0.29633 0.4445,0.28575 0.4445,1.143 0,0.98424 -0.52917,1.23824 -0.51858,0.24342 -1.60866,0.24342 l -1.38641,0.0212 q -0.635,0 -0.97367,-0.0212 -0.32808,-0.0106 -0.82549,-0.10583 -0.48684,-0.10584 -0.71967,-0.43392 -0.23283,-0.33867 -0.23283,-0.97366 l 0.0106,-0.22225 h 0.75142 l 0.0106,0.11641 q 0,0.508 0.21167,0.6985 0.21166,0.1905 0.74083,0.24342 l 1.30174,0.0423 h 0.22225 0.1905 q 0.65617,0 1.17475,-0.0529 0.51858,-0.0635 0.68791,-0.1905 0.17992,-0.13758 0.17992,-0.48683 0,-0.52916 -0.26458,-0.71966 -0.254,-0.1905 -0.8255,-0.1905 l -1.34408,-0.0106 h -1.28058 q -0.83608,0 -1.27,-0.26459 -0.43391,-0.26458 -0.43391,-1.05833 0,-0.74083 0.42333,-1.07949 0.42333,-0.34925 1.17475,-0.34925 l 1.40758,-0.0635 q 0.39158,0 0.76199,0.0106 0.37042,0 0.83608,0.0423 0.77259,0 1.09008,0.32809 0.32809,0.3175 0.32809,1.07949 h -0.74083 q -0.0423,-0.42333 -0.20109,-0.56091 -0.14816,-0.14817 -0.61383,-0.20108 z"
         id="path2424" />
      <path
         d="m 126.91174,-225.94179 h -0.74083 v -4.97415 h 0.74083 z m 0,-6.19123 h -0.74083 v -0.93133 h 0.74083 z"
         id="path2426" />
      <path
         d="m 129.34589,-229.88936 q 0.24342,-0.71966 0.81492,-0.91016 0.5715,-0.1905 1.52399,-0.1905 h 0.0952 q 0.78317,0 1.30175,0.0847 0.52916,0.0847 0.89958,0.381 0.381,0.29634 0.47625,0.66675 0.10583,0.37042 0.10583,0.92075 v 2.99507 h -0.74083 v -2.92099 q 0,-0.93133 -0.49741,-1.19591 -0.49742,-0.27517 -1.54517,-0.27517 -1.19591,0 -1.82032,0.27517 -0.61384,0.26458 -0.61384,1.31233 v 2.80457 h -0.74083 v -4.97415 h 0.74083 z"
         id="path2428" />
      <path
         d="m 142.55385,-225.69837 q 0,1.03716 -0.5715,1.55574 -0.5715,0.51858 -2.46591,0.51858 h -0.61383 q -1.3335,0 -2.00025,-0.31749 -0.66674,-0.3175 -0.66674,-1.47108 h 0.71966 q 0.0953,0.53975 0.3175,0.76199 0.23283,0.22225 0.65616,0.28575 0.43392,0.0635 0.6985,0.0741 0.27517,0.0106 0.70908,0.0106 0.65617,0 1.143,-0.0423 0.48683,-0.0423 0.79375,-0.20109 0.30691,-0.15875 0.42333,-0.47624 0.11641,-0.3175 0.11641,-0.6985 v -1.05833 q -0.24341,0.53975 -0.67733,0.70908 -0.42333,0.15875 -1.13241,0.15875 l -1.27,0.0317 q -1.40757,0 -2.01082,-0.52917 -0.60325,-0.53974 -0.60325,-1.93674 0,-1.34408 0.40216,-1.98966 0.41275,-0.64558 1.62983,-0.64558 l 1.41816,-0.0212 q 0.889,0 1.44992,0.15875 0.5715,0.15875 0.79374,0.78317 v -0.87842 h 0.74084 z m -3.72533,-0.8255 h 0.34925 0.17992 q 0.51858,0 0.81491,-0.0106 0.30692,-0.0212 0.74083,-0.127 0.43392,-0.10584 0.66675,-0.47625 0.23283,-0.37042 0.23283,-1.00541 0,-1.24883 -0.28574,-1.70392 -0.27517,-0.45508 -1.41817,-0.45508 l -1.42874,-0.0317 q -1.0795,0 -1.42875,0.39159 -0.33866,0.39158 -0.33866,1.52399 v 0.11642 q 0,0.94191 0.27516,1.31233 0.27517,0.35983 0.59267,0.40216 0.3175,0.0423 0.60325,0.0529 0.29633,0.0106 0.44449,0.0106 z"
         id="path2430" />
      <path
         d="m 155.74061,-229.57186 q 0,0.94191 -0.14816,1.75683 -0.14817,0.80433 -0.56092,1.22766 -0.41275,0.42333 -0.99483,0.53975 -0.58208,0.10583 -1.38641,0.10583 h -0.0847 -5.52448 v -7.04848 h 5.8949 q 1.71449,0 2.25424,0.79375 0.55033,0.79375 0.55033,2.62466 z m -0.88899,0.0106 q 0,-1.48166 -0.37042,-2.09549 -0.35983,-0.62441 -1.73566,-0.62441 h -4.84715 v 5.63031 h 4.76248 q 1.48166,0 1.83091,-0.64558 0.35984,-0.64558 0.35984,-2.26483 z"
         id="path2432" />
      <path
         d="m 162.47157,-226.52387 q -0.1905,0.32808 -0.46566,0.46567 -0.26458,0.127 -0.67733,0.15875 l -1.36525,0.0317 h -0.64558 q -1.31233,0 -1.74624,-0.37042 -0.42334,-0.381 -0.42334,-1.11125 0,-0.80433 0.29634,-1.13241 0.29633,-0.32808 0.82549,-0.381 0.53975,-0.0529 0.9525,-0.0635 0.41275,-0.0106 0.77258,-0.0106 l 1.397,0.0423 q 0.381,0 0.61383,0.11642 0.23283,0.11641 0.46566,0.43391 v -0.52916 q 0,-0.45508 -0.0741,-0.75142 -0.0741,-0.30691 -0.32808,-0.47624 -0.254,-0.16934 -0.86783,-0.20109 -0.60325,-0.0317 -0.89958,-0.0317 -0.35983,0 -0.6985,0.0106 -0.33867,0 -0.74083,0.0529 -0.39158,0.0529 -0.53975,0.254 -0.14817,0.20108 -0.14817,0.59267 h -0.80433 q 0,-0.79375 0.33867,-1.11125 0.34925,-0.3175 1.03716,-0.381 0.6985,-0.0741 1.28058,-0.0741 0.71967,0 1.19591,0.0317 0.47625,0.0212 1.02658,0.16933 0.55034,0.14817 0.75142,0.59267 0.21166,0.43391 0.21166,1.15358 v 3.1009 h -0.74083 z m -2.49766,0 h 0.21167 q 0.53975,0 0.9525,-0.0212 0.41275,-0.0317 0.86783,-0.15875 0.46566,-0.12699 0.46566,-0.71966 0,-0.508 -0.3175,-0.64558 -0.30691,-0.14817 -0.67733,-0.17992 -0.35983,-0.0423 -0.81491,-0.0423 l -0.65617,0.0106 q -0.76199,0 -1.07949,0.0317 -0.30692,0.0318 -0.56092,0.127 -0.254,0.0952 -0.33866,0.29633 -0.0847,0.1905 -0.0847,0.47625 0,0.381 0.22225,0.59267 0.23283,0.21166 0.94191,0.21166 z"
         id="path2434" />
      <path
         d="m 170.26087,-230.91594 -2.76224,5.3869 q -0.56091,1.0795 -0.99483,1.51341 -0.43391,0.43392 -1.40758,0.43392 l -0.381,-0.0106 v -0.60324 l 0.21167,0.0106 q 0.77258,0 1.0795,-0.381 0.30691,-0.381 0.84666,-1.42874 h -0.28575 l -2.79399,-4.92124 h 0.85725 l 2.49766,4.40265 2.26482,-4.40265 z"
         id="path2436" />
      <path
         d="m 179.56358,-225.89945 -1.82033,0.0317 -0.78317,0.0106 -1.56632,-0.0741 q -1.88383,-0.1905 -1.88383,-2.02141 l -0.0423,-1.34408 q 0,-0.80433 0.0106,-1.19592 0.0212,-0.39158 0.15875,-1.09008 0.13758,-0.69849 0.66675,-1.05833 0.52916,-0.35983 1.47108,-0.35983 0.42333,-0.0423 0.79374,-0.0529 0.381,-0.0106 0.889,-0.0106 h 0.254 l 1.016,-0.0106 q 0.61383,0 0.99483,0.0317 0.38099,0.0212 0.99483,0.14816 0.62441,0.127 0.86783,0.67734 0.24341,0.55033 0.24341,1.47107 h -0.84666 v -0.0635 q 0,-0.47624 -0.0635,-0.78316 -0.0529,-0.30692 -0.27517,-0.4445 -0.21166,-0.13758 -0.79374,-0.21166 -0.58209,-0.0741 -1.60867,-0.0741 -0.38099,0 -1.15358,0.0317 -0.77258,0.0318 -1.16416,0.0318 -0.91016,0.0741 -1.16416,0.32808 -0.254,0.24342 -0.3175,0.85725 -0.0635,0.61383 -0.0741,1.12183 -0.0106,0.49742 -0.0106,0.9525 0,1.34408 0.26459,1.85208 0.27516,0.50799 1.43932,0.50799 l 1.651,0.0212 1.57691,-0.0212 q 0.97366,0 1.35466,-0.23283 0.381,-0.23283 0.381,-1.12183 v -0.28575 h 0.889 q 0,1.38642 -0.42333,1.88383 -0.42334,0.49742 -1.92616,0.49742 z"
         id="path2438" />
      <path
         d="m 186.53797,-230.97944 q 1.26999,0 1.90499,0.127 0.635,0.127 1.016,0.64558 0.39158,0.51858 0.39158,1.68275 0,1.76741 -0.67733,2.21191 -0.67733,0.4445 -2.64583,0.4445 -1.74624,0 -2.47649,-0.43392 -0.73025,-0.43392 -0.73025,-2.07433 0,-1.16416 0.33867,-1.77799 0.33867,-0.62442 1.05833,-0.70908 0.71966,-0.0952 1.04775,-0.10584 0.32808,-0.0106 0.77258,-0.0106 z m 0,4.45557 q 1.39699,0 1.95791,-0.24342 0.5715,-0.24341 0.5715,-1.42874 0,-0.92075 -0.20109,-1.43933 -0.1905,-0.51858 -0.75141,-0.59266 -0.55033,-0.0741 -0.889,-0.0847 -0.32808,-0.0106 -0.78316,-0.0106 h -0.22225 q -1.22766,0 -1.67216,0.32808 -0.43392,0.32808 -0.43392,1.56633 0,1.18533 0.45508,1.55574 0.45509,0.35983 1.68275,0.35983 z"
         id="path2440" />
      <path
         d="m 192.1471,-225.94179 h -0.74084 v -4.97415 h 0.74084 z m 0,-6.19123 h -0.74084 v -0.93133 h 0.74084 z"
         id="path2442" />
      <path
         d="m 194.58125,-230.12219 q 0.21166,-0.55033 0.73024,-0.70908 0.51859,-0.15875 1.29117,-0.15875 h 0.15875 q 1.01599,0 1.61924,0.17991 0.61383,0.16934 0.889,0.86784 0.28575,-0.68792 0.85725,-0.86784 0.57149,-0.17991 1.54516,-0.17991 1.38641,0 2.06374,0.39158 0.67733,0.381 0.67733,1.66158 v 2.99507 h -0.74083 v -2.99507 q 0,-0.87842 -0.45508,-1.13241 -0.45508,-0.26459 -1.44991,-0.26459 h -0.254 q -1.21708,0 -1.61925,0.35984 -0.40216,0.34924 -0.40216,1.03716 v 2.99507 h -0.74083 v -2.99507 q 0,-0.70908 -0.35984,-1.04775 -0.35983,-0.34925 -1.65099,-0.34925 -1.37583,0 -1.76741,0.381 -0.39158,0.381 -0.39158,1.17475 v 2.83632 h -0.74083 v -4.97415 h 0.74083 z"
         id="path2444" />
      <path
         d="m 206.84728,-230.10102 q 0.22225,-0.56092 0.74083,-0.71967 0.51858,-0.15875 1.29116,-0.15875 h 0.56091 q 1.74625,0 2.42358,0.45508 0.68791,0.45509 0.68791,2.10608 0,1.65099 -0.66674,2.10608 -0.66675,0.4445 -2.43416,0.4445 l -0.64558,0.0106 q -0.762,0 -1.2065,-0.14817 -0.4445,-0.15875 -0.75141,-0.70908 v 0.77258 h -0.74084 v -7.12256 h 0.74084 z m 2.63524,3.57715 h 0.17991 q 0.55034,0 0.889,-0.0318 0.34925,-0.0317 0.66675,-0.16933 0.3175,-0.14817 0.42333,-0.51858 0.11642,-0.37042 0.11642,-0.94192 v -0.21166 q 0,-0.87842 -0.17992,-1.32292 -0.16933,-0.45508 -0.635,-0.51858 -0.46566,-0.0635 -0.82549,-0.0741 -0.35984,-0.0106 -0.66675,-0.0106 -0.48683,0 -0.80433,0.0212 -0.3175,0.0106 -0.86783,0.0847 -0.53975,0.0635 -0.73025,0.51858 -0.1905,0.45508 -0.1905,1.34408 0,0.62441 0.11642,1.03716 0.127,0.40217 0.49741,0.5715 0.37042,0.15875 0.84666,0.1905 0.48684,0.0318 1.16417,0.0318 z"
         id="path2446" />
      <path
         d="m 214.83766,-230.03752 q 0.14817,-0.4445 0.5715,-0.6985 0.43392,-0.254 1.40758,-0.254 1.41816,0 1.97908,0.35983 0.5715,0.34925 0.5715,1.67216 l -0.0106,0.23283 h -0.73025 q 0,-0.94191 -0.29633,-1.26999 -0.28575,-0.33867 -1.23824,-0.33867 h -0.254 q -1.0795,0 -1.54517,0.30692 -0.45508,0.29633 -0.45508,1.30174 v 2.78341 h -0.74083 v -4.97415 h 0.74083 z"
         id="path2448" />
      <path
         d="m 225.53738,-226.52387 q -0.1905,0.32808 -0.46567,0.46567 -0.26458,0.127 -0.67733,0.15875 l -1.36524,0.0317 h -0.64559 q -1.31233,0 -1.74624,-0.37042 -0.42333,-0.381 -0.42333,-1.11125 0,-0.80433 0.29633,-1.13241 0.29633,-0.32808 0.8255,-0.381 0.53975,-0.0529 0.95249,-0.0635 0.41275,-0.0106 0.77259,-0.0106 l 1.39699,0.0423 q 0.381,0 0.61383,0.11642 0.23283,0.11641 0.46567,0.43391 v -0.52916 q 0,-0.45508 -0.0741,-0.75142 -0.0741,-0.30691 -0.32808,-0.47624 -0.254,-0.16934 -0.86783,-0.20109 -0.60325,-0.0317 -0.89958,-0.0317 -0.35983,0 -0.6985,0.0106 -0.33866,0 -0.74083,0.0529 -0.39158,0.0529 -0.53975,0.254 -0.14816,0.20108 -0.14816,0.59267 h -0.80433 q 0,-0.79375 0.33866,-1.11125 0.34925,-0.3175 1.03717,-0.381 0.69849,-0.0741 1.28057,-0.0741 0.71967,0 1.19592,0.0317 0.47625,0.0212 1.02658,0.16933 0.55033,0.14817 0.75141,0.59267 0.21167,0.43391 0.21167,1.15358 v 3.1009 h -0.74083 z m -2.49766,0 h 0.21166 q 0.53975,0 0.9525,-0.0212 0.41275,-0.0317 0.86783,-0.15875 0.46567,-0.12699 0.46567,-0.71966 0,-0.508 -0.3175,-0.64558 -0.30692,-0.14817 -0.67733,-0.17992 -0.35984,-0.0423 -0.81492,-0.0423 l -0.65616,0.0106 q -0.762,0 -1.0795,0.0317 -0.30691,0.0318 -0.56091,0.127 -0.254,0.0952 -0.33867,0.29633 -0.0847,0.1905 -0.0847,0.47625 0,0.381 0.22225,0.59267 0.23284,0.21166 0.94192,0.21166 z"
         id="path2450" />
      <path
         d="m 238.19497,-225.94179 h -7.79989 v -0.29633 q 0,-1.64041 0.37041,-2.31774 0.381,-0.67733 1.83091,-0.67733 l 1.57691,-0.0952 q 0.47625,0 0.87842,-0.0212 0.40216,-0.0317 1.12183,-0.13758 0.73024,-0.11642 0.94191,-0.40217 0.21167,-0.29633 0.21167,-0.98425 0,-0.77258 -0.32809,-1.07949 -0.31749,-0.3175 -1.11124,-0.3175 l -1.73566,-0.0529 -1.35467,0.0423 q -0.82549,0 -1.16416,0.31749 -0.32808,0.30692 -0.32808,1.21708 l -0.0106,0.35984 h -0.8255 q 0,-1.34408 0.30691,-1.89441 0.3175,-0.55034 1.16417,-0.64559 0.84666,-0.10583 1.22766,-0.11641 0.381,-0.0212 0.98425,-0.0212 h 0.82549 q 1.72508,0 2.4765,0.35983 0.75141,0.34925 0.75141,1.83091 0,1.15358 -0.48683,1.66158 -0.48683,0.508 -1.66158,0.508 l -1.80974,0.127 -1.49225,0.11642 q -0.99483,0 -1.25941,0.37041 -0.254,0.35983 -0.254,1.41816 h 6.95323 z"
         id="path2452" />
      <path
         d="m 241.15827,-233.0326 2.00025,-0.0317 2.29657,0.0529 q 0.71967,0 1.13242,0.47625 0.42333,0.46566 0.50799,1.09008 0.0847,0.61383 0.10584,1.11124 0.0212,0.49742 0.0212,1.06892 0,1.31233 -0.127,1.96849 -0.127,0.64558 -0.67733,1.03716 -0.55033,0.381 -1.79916,0.381 l -1.57691,0.0106 -1.66158,-0.0212 q -0.889,0 -1.49224,-0.30692 -0.59267,-0.3175 -0.70908,-0.93133 -0.11642,-0.61383 -0.15875,-1.14299 -0.0318,-0.53975 -0.0318,-1.11125 0,-0.762 0.0106,-1.18533 0.0212,-0.42333 0.14817,-1.0795 0.127,-0.66674 0.61383,-1.02658 0.49741,-0.35983 1.39699,-0.35983 z m 0.41275,6.4029 1.50283,0.0212 1.56633,-0.0317 q 0.78316,0 1.15358,-0.19049 0.37041,-0.20109 0.43391,-0.73025 0.0741,-0.52917 0.0953,-1.016 0.0212,-0.49741 0.0212,-0.9525 0,-0.56091 -0.0317,-1.07949 -0.0212,-0.52917 -0.13758,-0.94192 -0.10584,-0.42333 -0.47625,-0.57149 -0.37042,-0.15875 -0.98425,-0.15875 l -1.55574,-0.0423 -1.53458,0.0317 q -0.81492,0 -1.2065,0.20109 -0.39158,0.19049 -0.45508,0.75141 -0.0529,0.56091 -0.0741,1.03716 -0.0212,0.47625 -0.0212,0.91017 l 0.0847,1.59807 q 0.0635,0.68792 0.46566,0.93134 0.40217,0.23283 1.15358,0.23283 z"
         id="path2454" />
      <path
         d="m 255.97487,-225.94179 h -7.79989 v -0.29633 q 0,-1.64041 0.37042,-2.31774 0.381,-0.67733 1.83091,-0.67733 l 1.57691,-0.0952 q 0.47625,0 0.87841,-0.0212 0.40217,-0.0317 1.12183,-0.13758 0.73025,-0.11642 0.94192,-0.40217 0.21166,-0.29633 0.21166,-0.98425 0,-0.77258 -0.32808,-1.07949 -0.3175,-0.3175 -1.11125,-0.3175 l -1.73566,-0.0529 -1.35466,0.0423 q -0.8255,0 -1.16416,0.31749 -0.32808,0.30692 -0.32808,1.21708 l -0.0106,0.35984 h -0.82549 q 0,-1.34408 0.30691,-1.89441 0.3175,-0.55034 1.16416,-0.64559 0.84667,-0.10583 1.22767,-0.11641 0.381,-0.0212 0.98424,-0.0212 h 0.8255 q 1.72508,0 2.47649,0.35983 0.75142,0.34925 0.75142,1.83091 0,1.15358 -0.48683,1.66158 -0.48684,0.508 -1.66158,0.508 l -1.80975,0.127 -1.49224,0.11642 q -0.99483,0 -1.25941,0.37041 -0.254,0.35983 -0.254,1.41816 h 6.95322 z"
         id="path2456" />
      <path
         d="m 257.74227,-230.71486 2.93157,-2.28599 h 1.09008 v 7.05906 h -0.83608 v -6.38173 l -2.69874,2.159 z"
         id="path2458" />
    </g>
    <path
       style="display:inline;fill:none;stroke:#ffffff;stroke-width:0.529167;stroke-linecap:butt;stroke-linejoin:miter;stroke-miterlimit:4;stroke-dasharray:none;stroke-opacity:1"
       d="M 221.44912,251.19038 V 73.390373"
       id="path233943" />
    <g
       id="g446737"
       transform="matrix(0,0.25,-0.25,0,221.22515,17.518185)"
       style="display:inline;fill:#ffffff;fill-opacity:1">
      <path
         id="path446711"
         style="fill:none;fill-opacity:1;fill-rule:nonzero;stroke:#ffffff;stroke-width:1.5875;stroke-miterlimit:4;stroke-dasharray:none;stroke-opacity:1"
         d="m 225.61035,30.873624 v 6.925675 h 30.72886 a 19.443195,19.443195 0 0 1 -5.09423,24.387141 19.443195,19.443195 0 0 1 -27.10635,-2.973461 l -5.36506,4.242636 a 26.277686,26.277686 0 0 0 36.71093,4.091739 26.277686,26.277686 0 0 0 4.48861,-36.67373 z" />
      <path
         id="circle446713"
         style="fill:none;stroke:#ffffff;stroke-width:1.5875"
         d="m 267.22577,26.858629 a 4.6955929,4.6955929 0 0 1 -4.69559,4.695593 4.6955929,4.6955929 0 0 1 -4.69559,-4.695593 4.6955929,4.6955929 0 0 1 4.69559,-4.695593 4.6955929,4.6955929 0 0 1 4.69559,4.695593 z" />
      <path
         id="path446715"
         style="fill:none;fill-opacity:1;stroke:#ffffff;stroke-width:1.5875;stroke-miterlimit:4;stroke-dasharray:none;stroke-opacity:1"
         d="m 271.35225,30.873624 v 6.925675 22.863718 6.925675 4.574403 h 6.92568 v -4.574403 h 20.5114 v 4.574403 h 6.92568 V 67.588692 60.663017 37.799299 30.873624 Z m 6.92568,6.925675 h 20.5114 v 22.863718 h -20.5114 z" />
      <path
         id="rect446717"
         style="fill:none;stroke:#ffffff;stroke-width:1.5875"
         d="m 313.25372,46.926929 h 30.404 v 6.925906 h -30.404 z" />
      <path
         id="path446719"
         style="fill:none;fill-opacity:1;stroke:#ffffff;stroke-width:1.5875;stroke-miterlimit:4;stroke-dasharray:none;stroke-opacity:1"
         d="m 383.50045,30.308284 -6.86573,1.809708 -14.98409,3.949113 v -5.193481 h -6.92568 v 7.018693 l -8.8728,2.337841 1.76418,6.697264 7.10862,-1.873784 v 20.182744 h 0.0217 a 6.9036151,6.9036151 0 0 0 2.02264,4.882394 6.9036151,6.9036151 0 0 0 4.88135,2.02158 h 28.34042 V 65.214681 H 361.65063 V 43.228425 l 12.8416,-3.383772 a 19.443195,19.443195 0 0 1 -9.02165,8.682673 l 2.80394,6.238378 a 26.277686,26.277686 0 0 0 15.22593,-24.45742 z" />
      <path
         id="path446721"
         style="fill:none;fill-opacity:1;stroke:#ffffff;stroke-width:1.5875;stroke-miterlimit:4;stroke-dasharray:none;stroke-opacity:1"
         d="m 391.28555,63.455759 a 26.277686,26.277686 0 0 0 36.71108,4.09176 26.277686,26.277686 0 0 0 4.48902,-36.673772 l -5.36174,4.24019 a 19.443195,19.443195 0 0 1 -3.36668,27.072846 19.443195,19.443195 0 0 1 -27.10694,-2.973588 z" />
      <path
         id="path446723"
         style="fill:none;fill-opacity:1;stroke:#ffffff;stroke-width:1.5875;stroke-miterlimit:4;stroke-dasharray:none;stroke-opacity:1"
         d="m 423.95831,63.455759 a 26.277686,26.277686 0 0 0 36.71108,4.09176 26.277686,26.277686 0 0 0 4.489,-36.673772 l -5.36174,4.24019 a 19.443195,19.443195 0 0 1 -3.36666,27.072846 19.443195,19.443195 0 0 1 -27.10694,-2.973588 z" />
      <path
         id="rect446725"
         style="fill:none;stroke:#ffffff;stroke-width:1.5875"
         transform="rotate(60)"
         d="m 225.97328,-328.12057 h 30.404 v 6.9259 h -30.404 z" />
      <path
         id="rect446727"
         style="fill:none;stroke:#ffffff;stroke-width:1.5875"
         transform="rotate(60)"
         d="m 231.7224,-338.07834 h 30.404 v 6.92591 h -30.404 z" />
      <path
         id="rect446729"
         style="fill:none;stroke:#ffffff;stroke-width:1.5875"
         transform="rotate(60)"
         d="m 248.30083,-366.793 h 30.404 v 6.92591 h -30.404 z" />
      <path
         id="path446731"
         style="fill:none;fill-opacity:1;stroke:#ffffff;stroke-width:1.5875;stroke-miterlimit:4;stroke-dasharray:none;stroke-opacity:1"
         d="m 490.82518,20.017439 -6.86572,1.809708 a 19.443195,19.443195 0 0 1 -11.1642,16.408301 l 2.804,6.238379 a 26.277686,26.277686 0 0 0 7.57576,-5.302002 h 16.38761 a 19.443195,19.443195 0 0 1 -5.09424,24.387141 19.443195,19.443195 0 0 1 -6.48854,3.351737 l 2.78538,6.296252 a 26.277686,26.277686 0 0 0 7.94269,-4.288107 26.277686,26.277686 0 0 0 4.4886,-36.672698 h -15.07093 a 26.277686,26.277686 0 0 0 2.69959,-12.228711 z" />
      <path
         id="rect446733"
         style="fill:none;stroke:#ffffff;stroke-width:1.5875"
         transform="rotate(60)"
         d="m 268.82196,-428.49332 h 30.404 v 6.92591 h -30.404 z" />
      <path
         id="rect446735"
         style="fill:none;stroke:#ffffff;stroke-width:1.5875"
         transform="rotate(60)"
         d="m 268.82196,-436.07272 h 30.404 v 6.9259 h -30.404 z" />
      <path
         id="path451209"
         style="fill:none;fill-opacity:1;fill-rule:nonzero;stroke:#ffffff;stroke-width:1.5875;stroke-miterlimit:4;stroke-dasharray:none;stroke-opacity:1"
         d="m 532.52702,30.873624 v 6.925675 h 30.72886 A 19.443195,19.443195 0 0 1 558.16165,62.18644 19.443195,19.443195 0 0 1 531.0553,59.212979 l -5.36506,4.242636 a 26.277686,26.277686 0 0 0 36.71093,4.091739 26.277686,26.277686 0 0 0 4.48861,-36.67373 z" />
      <path
         id="circle451211"
         style="fill:none;stroke:#ffffff;stroke-width:1.5875"
         d="m 574.14286,26.858629 a 4.6955929,4.6955929 0 0 1 -4.69559,4.695593 4.6955929,4.6955929 0 0 1 -4.6956,-4.695593 4.6955929,4.6955929 0 0 1 4.6956,-4.695593 4.6955929,4.6955929 0 0 1 4.69559,4.695593 z" />
      <path
         id="path451213"
         style="fill:none;fill-opacity:1;stroke:#ffffff;stroke-width:1.5875;stroke-miterlimit:4;stroke-dasharray:none;stroke-opacity:1"
         d="m 578.26892,30.873624 v 6.925675 22.863718 6.925675 4.574403 h 6.92568 v -4.574403 h 20.5114 v 4.574403 h 6.92568 V 67.588692 60.663017 37.799299 30.873624 Z m 6.92568,6.925675 h 20.5114 v 22.863718 h -20.5114 z" />
      <path
         id="rect451215"
         style="fill:none;stroke:#ffffff;stroke-width:1.5875"
         d="m 620.17084,46.926929 h 30.404 v 6.925906 h -30.404 z" />
      <path
         id="path451217"
         style="fill:none;fill-opacity:1;stroke:#ffffff;stroke-width:1.5875;stroke-miterlimit:4;stroke-dasharray:none;stroke-opacity:1"
         d="m 690.41712,30.308284 -6.86573,1.809708 -14.98409,3.949113 v -5.193481 h -6.92568 v 7.018693 l -8.8728,2.337841 1.76418,6.697264 7.10862,-1.873784 v 20.182744 h 0.0217 a 6.9036151,6.9036151 0 0 0 2.02264,4.882394 6.9036151,6.9036151 0 0 0 4.88135,2.02158 h 28.34042 V 65.214681 H 668.5673 V 43.228425 l 12.8416,-3.383772 a 19.443195,19.443195 0 0 1 -9.02165,8.682673 l 2.80394,6.238378 a 26.277686,26.277686 0 0 0 15.22593,-24.45742 z" />
      <path
         id="path451219"
         style="fill:none;fill-opacity:1;stroke:#ffffff;stroke-width:1.5875;stroke-miterlimit:4;stroke-dasharray:none;stroke-opacity:1"
         d="m 698.20222,63.455759 a 26.277686,26.277686 0 0 0 36.71108,4.09176 26.277686,26.277686 0 0 0 4.48902,-36.673772 l -5.36174,4.24019 a 19.443195,19.443195 0 0 1 -3.36668,27.072846 19.443195,19.443195 0 0 1 -27.10694,-2.973588 z" />
      <path
         id="path451221"
         style="fill:none;fill-opacity:1;stroke:#ffffff;stroke-width:1.5875;stroke-miterlimit:4;stroke-dasharray:none;stroke-opacity:1"
         d="m 730.87498,63.455759 a 26.277686,26.277686 0 0 0 36.71108,4.09176 26.277686,26.277686 0 0 0 4.489,-36.673772 l -5.36174,4.24019 a 19.443195,19.443195 0 0 1 -3.36666,27.072846 19.443195,19.443195 0 0 1 -27.10694,-2.973588 z" />
      <path
         id="rect451223"
         style="fill:none;stroke:#ffffff;stroke-width:1.5875"
         transform="rotate(60)"
         d="m 379.43195,-593.91846 h 30.404 v 6.92591 h -30.404 z" />
      <path
         id="rect451225"
         style="fill:none;stroke:#ffffff;stroke-width:1.5875"
         transform="rotate(60)"
         d="m 385.18106,-603.87622 h 30.404 v 6.92591 h -30.404 z" />
      <path
         id="rect451227"
         style="fill:none;stroke:#ffffff;stroke-width:1.5875"
         transform="rotate(60)"
         d="m 401.75952,-632.59088 h 30.404 v 6.9259 h -30.404 z" />
      <path
         id="path451229"
         style="fill:none;fill-opacity:1;stroke:#ffffff;stroke-width:1.5875;stroke-miterlimit:4;stroke-dasharray:none;stroke-opacity:1"
         d="m 797.74185,20.017439 -6.86572,1.809708 a 19.443195,19.443195 0 0 1 -11.1642,16.408301 l 2.804,6.238379 a 26.277686,26.277686 0 0 0 7.57576,-5.302002 h 16.38761 a 19.443195,19.443195 0 0 1 -5.09424,24.387141 19.443195,19.443195 0 0 1 -6.48854,3.351737 l 2.78538,6.296252 a 26.277686,26.277686 0 0 0 7.94269,-4.288107 26.277686,26.277686 0 0 0 4.4886,-36.672698 h -15.07093 a 26.277686,26.277686 0 0 0 2.69959,-12.228711 z" />
      <path
         id="rect451231"
         style="fill:none;stroke:#ffffff;stroke-width:1.5875"
         transform="rotate(60)"
         d="m 422.28067,-694.2912 h 30.404 v 6.92591 h -30.404 z" />
      <path
         id="rect451233"
         style="fill:none;stroke:#ffffff;stroke-width:1.5875"
         transform="rotate(60)"
         d="m 422.28067,-701.87061 h 30.404 v 6.92591 h -30.404 z" />
    </g>
  </g>
</svg>
