<?xml version="1.0" encoding="UTF-8" standalone="no"?>
<!-- Created with Inkscape (http://www.inkscape.org/) -->

<svg
   width="1348.6716mm"
   height="659.40106mm"
   viewBox="0 0 1348.6716 659.40106"
   version="1.1"
   id="svg1194"
   inkscape:version="1.1.2 (1:1.1+202202050852+0a00cf5339)"
   sodipodi:docname="background-letters.svg"
   xmlns:inkscape="http://www.inkscape.org/namespaces/inkscape"
   xmlns:sodipodi="http://sodipodi.sourceforge.net/DTD/sodipodi-0.dtd"
   xmlns="http://www.w3.org/2000/svg"
   xmlns:svg="http://www.w3.org/2000/svg">
  <sodipodi:namedview
     id="namedview1196"
     pagecolor="#ffffff"
     bordercolor="#666666"
     borderopacity="1.0"
     inkscape:pageshadow="2"
     inkscape:pageopacity="0.0"
     inkscape:pagecheckerboard="0"
     inkscape:document-units="mm"
     showgrid="false"
     inkscape:zoom="0.46146184"
     inkscape:cx="2343.6391"
     inkscape:cy="1264.4599"
     inkscape:window-width="1366"
     inkscape:window-height="703"
     inkscape:window-x="0"
     inkscape:window-y="0"
     inkscape:window-maximized="1"
     inkscape:current-layer="layer1" />
  <defs
     id="defs1191">
    <inkscape:path-effect
       effect="offset"
       id="path-effect57418"
       is_visible="true"
       lpeversion="1"
       linejoin_type="miter"
       unit="mm"
       offset="15"
       miter_limit="4"
       attempt_force_join="false"
       update_on_knot_move="true" />
    <inkscape:path-effect
       effect="offset"
       id="path-effect57420"
       is_visible="true"
       lpeversion="1"
       linejoin_type="miter"
       unit="mm"
       offset="15"
       miter_limit="4"
       attempt_force_join="false"
       update_on_knot_move="true" />
    <inkscape:path-effect
       effect="offset"
       id="path-effect57422"
       is_visible="true"
       lpeversion="1"
       linejoin_type="miter"
       unit="mm"
       offset="15"
       miter_limit="4"
       attempt_force_join="false"
       update_on_knot_move="true" />
  </defs>
  <g
     inkscape:label="Layer 1"
     inkscape:groupmode="layer"
     id="layer1"
     transform="translate(514.94196,185.78741)">
    <path
       d="M -83.908203,-33.441406 -140.70312,234.45898 h 57.626948 l 19.666016,-92.62304 h 80.789062 c 15.408286,0 29.393605,-2.89811 41.25,-9.51563 l 0.05078,-0.0273 0.04883,-0.0293 c 11.06007,-6.28413 20.167426,-14.33513 26.90625,-24.30859 5.867521,-8.683936 10.381082,-17.449513 13.226562,-26.207033 2.722682,-7.963101 4.972692,-16.312852 6.767582,-25.035156 2.67127,-12.047758 4.14648,-23.224417 4.14648,-32.966797 0,-16.230955 -4.22739,-30.6791053 -14.628906,-41.447266 C 84.296806,-29.15053 67.859622,-33.441406 49.416016,-33.441406 Z m 179.054687,15.740234 c 0.02397,0.02529 0.05226,0.04495 0.07617,0.07031 l -0.15039,-0.15625 c 0.02669,0.0275 0.04761,0.05839 0.07422,0.08594 z m 10.482426,74.414063 c -0.008,0.03589 -0.01,0.06761 -0.0176,0.103515 l 0.0508,-0.240234 c -0.01,0.04665 -0.0236,0.09009 -0.0332,0.136719 z m -6.767582,25.035156 c -0.01697,0.04963 -0.02987,0.102745 -0.04687,0.152344 l 0.08203,-0.248047 c -0.01031,0.03187 -0.0248,0.06383 -0.03516,0.0957 z M -37.423828,20.349609 h 70.345703 c 12.039546,0 17.911106,1.526596 19.402344,2.396485 0,0 0.171875,1.592529 0.171875,5.441406 0,4.983485 -1.119118,13.393684 -3.783203,25.689453 l -0.01367,0.0625 -0.01367,0.06445 c -2.140236,10.312043 -4.655523,17.357299 -7.199219,21.876953 -2.495648,4.22429 -5.096713,6.713383 -7.490234,8.126953 -2.862894,1.599283 -6.319935,2.728745 -10.546875,3.166016 l -0.02734,0.002 -0.02734,0.0039 C 18.219197,87.734181 10.29323,88.046875 -0.70117188,88.046875 H -51.929688 Z"
       style="font-style:italic;font-weight:bold;font-size:317.199px;line-height:1.25;font-family:Eurostile;-inkscape-font-specification:'Eurostile Bold';letter-spacing:0px;fill:#d35f5f;fill-rule:nonzero;stroke:none;stroke-width:0.555133"
       id="path57126"
       inkscape:linked-fill="path57184"
       inkscape:original-d="m -122.18861,219.4581 h 26.961916 l 19.666338,-92.62211 h 92.939303 q 20.30074,0 33.94029,-7.61278 13.95676,-7.92997 21.88674,-19.666339 7.92997,-11.73636 11.41916,-22.521127 3.80639,-11.101965 6.34398,-23.472727 3.80639,-17.128746 3.80639,-29.816706 0,-20.300736 -10.46757,-31.0855013 Q 73.840377,-18.441156 49.416047,-18.441156 H -71.753968 Z M 32.921697,5.348769 q 19.34914,0 26.96192,4.440786 7.61278,4.440786 7.61278,18.397542 0,9.833169 -4.12359,28.86511 -3.48919,16.811547 -8.88157,26.327517 -5.39239,9.198777 -13.00516,13.639557 -7.29558,4.123589 -16.49435,5.075189 -8.88157,0.95159 -25.693116,0.95159 H -70.485172 L -49.550038,5.348769 Z"
       inkscape:path-effect="#path-effect57418" />
    <path
       d="M 79,-6.3027344 22.205078,261.59766 H 162.83984 c 18.68515,0 35.49632,-3.67711 49.83789,-11.75196 13.5206,-7.49608 24.66556,-17.0242 33.08594,-28.76172 7.57994,-10.56595 13.48244,-21.17788 17.41406,-31.74414 3.62,-9.72872 6.47399,-19.41378 8.53907,-29.05078 l 0.002,-0.0137 12.05664,-56.79101 -0.0254,0.11328 c 2.91799,-13.243162 4.47461,-25.61663 4.47461,-36.851566 0,-14.461096 -2.53996,-27.733362 -8.47656,-38.53711 -5.35878,-10.123379 -12.63938,-18.2314184 -22.26758,-23.6640621 -8.04412,-4.65272819 -16.52059,-7.73495 -25.46289,-9.0898438 -7.82753,-1.1859897 -16.20549,-1.7578125 -25.08594,-1.7578125 z M 257.48047,4.5449219 c 0.0397,0.022972 0.0814,0.039451 0.12109,0.0625 l -0.17773,-0.1015625 c 0.0203,0.011397 0.0364,0.027642 0.0566,0.039063 z m 22.26758,23.6640621 c 0.0275,0.05203 0.0624,0.0963 0.0898,0.148438 l -0.14453,-0.269531 c 0.0212,0.03828 0.0336,0.08276 0.0547,0.121093 z M 212.67773,249.8457 c -0.0231,0.0128 -0.0433,0.0282 -0.0664,0.041 l 0.0996,-0.0566 c -0.0106,0.006 -0.0226,0.01 -0.0332,0.0156 z M 125.49414,47.488281 h 81.11914 c 6.30368,0 10.15088,0.977782 12.64063,2.222657 l 0.33007,0.166015 0.3379,0.148438 c 3.03331,1.334659 4.93223,3.001968 6.12304,4.703125 l 0.10547,0.15039 0.10742,0.146485 c 1.79092,2.430528 2.89762,4.884323 3.47657,7.43164 0.79395,3.493438 1.21289,7.24211 1.21289,11.267578 0,4.526401 -0.43425,8.930196 -1.29297,13.226563 -5.2e-4,0.0026 -0.001,0.0052 -0.002,0.0078 l -13.23632,62.078126 c -2.64597,11.39116 -5.39082,20.6423 -8.25977,28.10156 l -0.0606,0.15821 -0.0566,0.1582 c -2.4052,6.7002 -5.60715,12.33265 -9.41406,16.95898 -3.38329,3.91823 -7.94287,7.28729 -13.70703,9.80078 -5.5592,2.21693 -13.10703,3.5918 -23.3457,3.5918 H 91.292969 Z"
       style="font-style:italic;font-weight:bold;font-size:317.199px;line-height:1.25;font-family:Eurostile;-inkscape-font-specification:'Eurostile Bold';letter-spacing:0px;fill:#d35f5f;stroke:none;stroke-width:7.92998"
       id="path57128"
       inkscape:path-effect="#path-effect57420"
       inkscape:original-d="M 40.718697,246.59749 H 162.84031 q 25.05873,0 42.50468,-9.83317 17.76314,-9.83317 28.2307,-24.42433 10.46758,-14.59115 15.54276,-28.23071 5.07519,-13.63955 7.92998,-26.96191 l 12.05356,-56.77863 q 4.12358,-18.71474 4.12358,-33.623094 0,-19.349139 -6.66118,-31.402701 Q 260.22042,23.289383 250.07004,17.5798 240.23687,11.870218 229.7693,10.284223 219.30174,8.698228 206.93097,8.698228 H 91.153337 Z M 72.755787,222.80756 113.35727,32.488154 h 93.2565 q 11.73637,0 19.34914,3.806388 7.92998,3.489189 12.37077,9.833169 4.44078,6.026781 6.02678,13.005159 1.58599,6.978378 1.58599,14.591154 0,8.247175 -1.58599,16.177157 L 231.0381,152.38938 q -4.12359,17.76315 -8.88157,30.13391 -4.44079,12.37076 -12.05357,21.56953 -7.61277,8.88157 -19.34914,13.95676 -11.73636,4.75798 -29.1823,4.75798 z" />
    <path
       d="m 357.86914,33.826172 c -16.94281,0 -31.93983,0.875055 -44.62695,2.6875 -13.39906,1.914151 -25.78735,5.761421 -37.17188,11.701172 -12.20462,6.367626 -22.24599,15.661249 -30.48047,27.638672 l -0.0176,0.02734 -0.0195,0.0293 c -8.16334,11.989923 -13.86612,27.168794 -17.51367,44.722654 l -19.65429,91.92578 -0.004,0.0234 c -1.86936,8.8795 -2.85938,17.44044 -2.85938,25.61133 0,20.081 5.61471,37.1568 18.91016,49.86133 l 0.12305,0.11719 0.12695,0.11523 c 13.3371,12.17735 31.06645,17.24414 51.66602,17.24414 h 38.06445 c 13.94469,0 26.33136,-0.66159 36.83203,-2.03125 l 0.13477,-0.0176 0.13476,-0.0195 c 11.33269,-1.68784 21.84696,-4.85902 31.46094,-9.66601 10.5878,-5.2939 19.22903,-13.14809 26.24023,-23.2754 7.13893,-10.31178 12.00073,-23.0075 15.03907,-37.49804 l 8.63086,-40.28125 h -57.61524 l -6.71094,30.97265 -0.0234,0.11719 c -1.50613,7.53061 -3.33455,12.62014 -5.35743,16.23242 -1.71765,3.06726 -3.76838,5.04436 -6.02929,6.32227 -2.88765,1.63215 -7.01719,3.06543 -12.88086,3.92773 -6.34151,0.93258 -14.66044,1.42578 -25.73242,1.42578 h -32.03711 c -12.6503,0 -17.50913,-1.78403 -19.77344,-3.71289 -1.28305,-1.09296 -3.29102,-4.0825 -3.29102,-12.05468 0,-7.75512 2.14714,-22.13223 6.9668,-44.76368 l 13.95899,-65.35742 0.004,-0.0156 c 2.11884,-10.01629 4.73032,-16.86448 7.62891,-21.59375 2.6385,-4.304929 5.94247,-7.348022 9.94922,-9.416018 4.66679,-2.408668 10.93907,-4.336537 19.21093,-5.439453 8.74704,-1.166271 20.1149,-1.771485 34.8125,-1.771485 h 15.22657 c 11.79321,0 16.54566,1.647526 17.96093,2.708985 l 0.27735,0.208984 0.28711,0.195313 c 0,0 1.36523,1.896695 1.36523,5.99414 0,3.938454 -0.72169,9.831754 -2.53515,18.496094 l -0.0274,0.13086 -4.68945,24.60351 h 57.28711 l 4.07422,-19.55468 -0.0234,0.10351 c 2.45643,-11.38889 3.82812,-21.663865 3.82812,-30.441403 0,-17.485768 -5.36907,-32.704566 -18.41406,-42.865235 -12.20578,-9.711364 -29.97425,-13.36914 -50.50976,-13.36914 z m 72.71289,13.36914 c 0.0309,0.02459 0.0668,0.0437 0.0977,0.06836 l -0.18164,-0.142578 c 0.0301,0.02336 0.0539,0.0508 0.084,0.07422 z"
       style="font-style:italic;font-weight:bold;font-size:317.199px;line-height:1.25;font-family:Eurostile;-inkscape-font-specification:'Eurostile Bold';letter-spacing:0px;fill:#d35f5f;stroke:none;stroke-width:7.92998"
       id="path57130"
       inkscape:path-effect="#path-effect57422"
       inkscape:original-d="m 314.41195,290.53103 q 20.30073,0 34.89189,-1.90319 14.90835,-2.2204 26.96191,-8.24718 12.05356,-6.02678 20.61794,-18.39754 8.56437,-12.37076 12.68796,-32.0371 l 4.75798,-22.20393 h -26.96191 l -4.12359,19.03194 q -2.53759,12.68796 -6.97838,20.61794 -4.44078,7.92997 -11.73636,12.05356 -7.29558,4.12359 -18.08034,5.70958 -10.78477,1.586 -27.91352,1.586 h -32.0371 q -20.93513,0 -29.4995,-7.29558 -8.56438,-7.29558 -8.56438,-23.47273 0,-13.63955 7.29558,-47.89705 l 13.95676,-65.34299 q 3.48919,-16.49435 9.51597,-26.327519 6.02678,-9.83317 15.85995,-14.908353 9.83317,-5.075184 24.10712,-6.978378 14.27396,-1.903194 36.79509,-1.903194 h 15.22555 q 19.34914,0 26.96191,5.709582 7.92998,5.392383 7.92998,18.397543 0,7.929969 -2.85479,21.569529 l -1.2688,6.66118 h 26.96192 l 1.58599,-7.61278 q 3.48919,-16.17714 3.48919,-27.279109 0,-21.252333 -12.68796,-31.085503 Q 408.62005,48.82539 380.07214,48.82539 h -22.20393 q -24.74152,0 -42.50467,2.537592 -17.76314,2.537592 -32.3543,10.150369 -14.59115,7.612776 -25.05872,22.838328 -10.15037,14.908352 -15.22555,39.332681 l -19.66634,91.98771 q -2.53759,12.05356 -2.53759,22.52113 0,25.37592 14.27396,39.01547 14.59115,13.32236 41.55307,13.32236 z" />
    <path
       id="path61184"
       style="font-style:italic;font-weight:bold;font-size:317.199px;line-height:1.25;font-family:Eurostile;-inkscape-font-specification:'Eurostile Bold';letter-spacing:0px;fill:#919546;fill-opacity:1;stroke-width:7.92999"
       d="m 285.68356,43.794957 c -3.27922,1.319231 -6.48531,2.7876 -9.61287,4.41937 -12.20459,6.367626 -22.24632,15.6612 -30.48082,27.63862 l -0.0175,0.02739 -0.0196,0.02894 c -8.16385,11.990641 -13.86615,27.171263 -17.51367,44.724913 l -19.6541,91.92359 -0.004,0.0238 c -1.86939,8.87952 -2.85977,17.43996 -2.85977,25.61084 0,5.10803 0.368,10.01925 1.1286,14.71589 2.05304,-0.94187 4.06538,-1.95654 6.02753,-3.06128 13.52171,-7.49675 24.66652,-17.02691 33.08635,-28.76364 7.57992,-10.56596 13.4823,-21.17805 17.41393,-31.74432 3.61976,-9.72807 6.47385,-19.41144 8.53903,-29.04887 l 0.003,-0.0134 12.05662,-56.79292 -0.0254,0.11317 c 2.91798,-13.243134 4.47466,-25.616546 4.47466,-36.851492 0,-8.098076 -0.79799,-15.822792 -2.54143,-22.950538 z m -73.0059,206.052033 c -0.023,0.0127 -0.043,0.028 -0.0661,0.0408 l 0.0998,-0.0563 c -0.0106,0.006 -0.023,0.01 -0.0336,0.0156 z" />
    <path
       id="path109176"
       style="font-style:italic;font-weight:bold;font-size:317.199px;line-height:1.25;font-family:Eurostile;-inkscape-font-specification:'Eurostile Bold';letter-spacing:0px;fill:#919546;fill-opacity:1;fill-rule:nonzero;stroke:none;stroke-width:0.555133"
       d="M 78.997982,-6.3017257 48.651513,136.84612 c 3.46787,-1.25443 6.801527,-2.75204 9.977686,-4.52478 l 0.05064,-0.0274 0.04909,-0.0289 c 11.061502,-6.28493 20.167714,-14.33819 26.905852,-24.31066 5.8669,-8.683013 10.380864,-17.446883 13.226584,-26.205121 2.722685,-7.963095 4.972655,-16.312864 6.767545,-25.035163 2.67134,-12.048074 4.14652,-23.226146 4.14652,-32.96853 0,-11.04138 -1.96312,-21.2537514 -6.48849,-30.0472617 z M 105.62891,56.714066 c -0.008,0.03589 -0.01,0.06745 -0.0176,0.103352 l 0.0512,-0.239779 c -0.01,0.04665 -0.024,0.0898 -0.0336,0.136427 z m -6.767541,25.035163 c -0.01696,0.04963 -0.02951,0.102846 -0.04651,0.152445 l 0.08165,-0.248047 c -0.01032,0.03187 -0.02479,0.06373 -0.03514,0.0956 z" />
    <path
       style="fill:#d35f5f;fill-opacity:1;stroke:none;stroke-width:0.264583px;stroke-linecap:butt;stroke-linejoin:miter;stroke-opacity:1"
       d="m -76.437592,-169.41261 -131.306028,617.7462 h -307.19834 l 131.30601,-617.7462 z"
       id="path4362"
       sodipodi:nodetypes="ccccc" />
    <path
       style="fill:#d35f5f;fill-opacity:1;stroke:none;stroke-width:0.264583px;stroke-linecap:butt;stroke-linejoin:miter;stroke-opacity:1"
       d="M 833.72961,-169.41261 702.4235,448.33359 H 395.22516 l 131.30601,-617.7462 z"
       id="path15179"
       sodipodi:nodetypes="ccccc" />
    <path
       style="display:inline;fill:#ffffff;stroke:#ffffff;stroke-width:0.264583px;stroke-linecap:butt;stroke-linejoin:miter;stroke-opacity:1"
       d="m -186.96676,452.11248 41.29756,-194.28976 h 57.249957 l -45.527997,215.76363"
       id="path101243"
       sodipodi:nodetypes="cccc" />
    <path
       id="path16987"
       style="display:inline;fill:#ffffff;stroke:#ffffff;stroke-width:0.264583px;stroke-linecap:butt;stroke-linejoin:miter;stroke-opacity:1"
       d="M 452.74365,-185.65512 410.77618,11.784509 c 12.77247,2.726002 24.95698,7.611698 35.25726,15.773196 -0.0805,-0.06294 -0.14182,-0.136223 -0.2227,-0.198953 l 0.48625,0.382921 c -0.0843,-0.06745 -0.17893,-0.116956 -0.26355,-0.183968 6.34564,4.959858 11.42508,10.594049 15.42439,16.684252 l 48.53554,-229.897077 z" />
  </g>
</svg>
