<?xml version="1.0" encoding="UTF-8" standalone="no"?>
<!-- Created with Inkscape (http://www.inkscape.org/) -->

<svg
   width="154.24475mm"
   height="29.218334mm"
   viewBox="0 0 154.24475 29.218334"
   version="1.1"
   id="svg1434"
   inkscape:version="1.1 (1:1.1+202106031931+af4d65493e)"
   sodipodi:docname="katakana-middle.svg"
   xmlns:inkscape="http://www.inkscape.org/namespaces/inkscape"
   xmlns:sodipodi="http://sodipodi.sourceforge.net/DTD/sodipodi-0.dtd"
   xmlns="http://www.w3.org/2000/svg"
   xmlns:svg="http://www.w3.org/2000/svg">
  <sodipodi:namedview
     id="namedview1436"
     pagecolor="#ffffff"
     bordercolor="#666666"
     borderopacity="1.0"
     inkscape:pageshadow="2"
     inkscape:pageopacity="0.0"
     inkscape:pagecheckerboard="0"
     inkscape:document-units="mm"
     showgrid="false"
     inkscape:zoom="0.46146184"
     inkscape:cx="426.9042"
     inkscape:cy="144.10726"
     inkscape:window-width="1366"
     inkscape:window-height="703"
     inkscape:window-x="0"
     inkscape:window-y="0"
     inkscape:window-maximized="1"
     inkscape:current-layer="layer1" />
  <defs
     id="defs1431" />
  <g
     inkscape:label="Layer 1"
     inkscape:groupmode="layer"
     id="layer1"
     transform="translate(7.7459218,-110.38311)">
    <g
       id="g369318"
       transform="translate(-226.28835,95.835983)"
       style="fill:#deb1b7;fill-opacity:1">
      <path
         id="path334275"
         style="fill:#deb1b7;fill-opacity:1;stroke:none;stroke-width:1.23488;stroke-miterlimit:4;stroke-dasharray:none;stroke-opacity:1"
         d="m 1250.3652,73.757812 v 13.087891 h 58.0703 a 36.743046,36.743046 0 0 1 -9.6269,46.085937 36.743046,36.743046 0 0 1 -51.2246,-5.61914 l -10.1387,8.01758 a 49.658619,49.658619 0 0 0 69.375,7.73242 49.658619,49.658619 0 0 0 8.4824,-69.304688 z"
         transform="matrix(0.26458333,0,0,0.26458333,-108.86497,3.0837087)" />
      <circle
         style="fill:#deb1b7;fill-opacity:1;stroke:none;stroke-width:0.211503;stroke-miterlimit:4;stroke-dasharray:none;stroke-opacity:1"
         id="path334171"
         cx="240.42073"
         cy="20.591299"
         r="2.3477964" />
      <path
         id="rect334669"
         style="fill:#deb1b7;fill-opacity:1;stroke:none;stroke-width:1.23488;stroke-miterlimit:4;stroke-dasharray:none;stroke-opacity:1"
         d="m 1336.8066,73.757812 v 13.087891 43.207027 13.08789 8.64454 h 13.0879 v -8.64454 h 38.7617 v 8.64454 h 13.0879 V 143.14062 130.05273 86.845703 73.757812 Z m 13.0879,13.087891 h 38.7617 v 43.207027 h -38.7617 z"
         transform="matrix(0.26458333,0,0,0.26458333,-108.86497,3.0837087)" />
      <rect
         style="fill:#deb1b7;fill-opacity:1;stroke:none;stroke-width:0.326728;stroke-miterlimit:4;stroke-dasharray:none;stroke-opacity:1"
         id="rect334677"
         width="15.202"
         height="3.4629529"
         x="265.7825"
         y="30.625448" />
      <path
         id="rect343948"
         style="fill:#deb1b7;fill-opacity:1;stroke:none;stroke-width:1.23488;stroke-miterlimit:4;stroke-dasharray:none;stroke-opacity:1"
         d="m 1548.7402,72.689453 -12.9746,3.419922 -28.3164,7.462891 v -9.814454 h -13.0879 v 13.263672 l -16.7675,4.417969 3.3339,12.656247 13.4336,-3.54101 v 38.14062 h 0.041 a 13.046202,13.046202 0 0 0 3.8223,9.22657 13.046202,13.046202 0 0 0 9.2246,3.82031 h 53.5567 V 138.6543 h -53.5567 V 97.105469 l 24.2676,-6.394531 a 36.743046,36.743046 0 0 1 -17.0488,16.408202 l 5.2988,11.78906 a 49.658619,49.658619 0 0 0 28.7734,-46.218747 z"
         transform="matrix(0.26458333,0,0,0.26458333,-108.86497,3.0837087)" />
      <path
         id="path368477"
         style="fill:#deb1b7;fill-opacity:1;stroke:none;stroke-width:0.326728;stroke-miterlimit:4;stroke-dasharray:none;stroke-opacity:1"
         d="m 304.79842,38.889864 a 13.138843,13.138843 0 0 0 18.35554,2.04588 13.138843,13.138843 0 0 0 2.24451,-18.336886 l -2.68087,2.120095 a 9.7215977,9.7215977 0 0 1 -1.68334,13.536423 9.7215977,9.7215977 0 0 1 -13.55347,-1.486794 z" />
      <path
         id="path368583"
         style="fill:#deb1b7;fill-opacity:1;stroke:none;stroke-width:0.326728;stroke-miterlimit:4;stroke-dasharray:none;stroke-opacity:1"
         d="m 321.1348,38.889864 a 13.138843,13.138843 0 0 0 18.35554,2.04588 13.138843,13.138843 0 0 0 2.2445,-18.336886 l -2.68087,2.120095 a 9.7215977,9.7215977 0 0 1 -1.68333,13.536423 9.7215977,9.7215977 0 0 1 -13.55347,-1.486794 z" />
      <rect
         style="fill:#deb1b7;fill-opacity:1;stroke:none;stroke-width:0.326728;stroke-miterlimit:4;stroke-dasharray:none;stroke-opacity:1"
         id="rect368687"
         width="15.202"
         height="3.4629529"
         x="173.76692"
         y="-255.01086"
         transform="rotate(60)" />
      <rect
         style="fill:#deb1b7;fill-opacity:1;stroke:none;stroke-width:0.326728;stroke-miterlimit:4;stroke-dasharray:none;stroke-opacity:1"
         id="rect368689"
         width="15.202"
         height="3.4629529"
         x="176.64148"
         y="-259.98975"
         transform="rotate(60)" />
      <rect
         style="fill:#deb1b7;fill-opacity:1;stroke:none;stroke-width:0.326728;stroke-miterlimit:4;stroke-dasharray:none;stroke-opacity:1"
         id="rect368691"
         width="15.202"
         height="3.4629529"
         x="184.93069"
         y="-274.34708"
         transform="rotate(60)" />
      <path
         id="rect368904"
         style="fill:#deb1b7;fill-opacity:1;stroke:none;stroke-width:1.23488;stroke-miterlimit:4;stroke-dasharray:none;stroke-opacity:1"
         d="m 1751.5586,53.242188 -12.9746,3.419921 a 36.743046,36.743046 0 0 1 -21.0977,31.007813 l 5.2989,11.789062 a 49.658619,49.658619 0 0 0 14.3164,-10.019531 h 30.9687 a 36.743046,36.743046 0 0 1 -9.6269,46.085937 36.743046,36.743046 0 0 1 -12.2618,6.33399 l 5.2637,11.89843 a 49.658619,49.658619 0 0 0 15.0098,-8.10351 49.658619,49.658619 0 0 0 8.4824,-69.302738 h -28.4805 a 49.658619,49.658619 0 0 0 5.1016,-23.109374 z"
         transform="matrix(0.26458333,0,0,0.26458333,-108.86497,3.0837087)" />
      <rect
         style="fill:#deb1b7;fill-opacity:1;stroke:none;stroke-width:0.326728;stroke-miterlimit:4;stroke-dasharray:none;stroke-opacity:1"
         id="rect369290"
         width="15.202"
         height="3.4629529"
         x="195.19127"
         y="-305.19724"
         transform="rotate(60)" />
      <rect
         style="fill:#deb1b7;fill-opacity:1;stroke:none;stroke-width:0.326728;stroke-miterlimit:4;stroke-dasharray:none;stroke-opacity:1"
         id="rect369292"
         width="15.202"
         height="3.4629529"
         x="195.19127"
         y="-308.98694"
         transform="rotate(60)" />
    </g>
  </g>
</svg>
