<?xml version="1.0" encoding="UTF-8" standalone="no"?>
<svg
   xmlns:dc="http://purl.org/dc/elements/1.1/"
   xmlns:cc="http://creativecommons.org/ns#"
   xmlns:rdf="http://www.w3.org/1999/02/22-rdf-syntax-ns#"
   xmlns:svg="http://www.w3.org/2000/svg"
   xmlns="http://www.w3.org/2000/svg"
   id="svg1203"
   version="1.1"
   viewBox="0 0 154.57059 22.20554"
   height="22.20554mm"
   width="154.57059mm">
  <defs
     id="defs1197" />
  <metadata
     id="metadata1200">
    <rdf:RDF>
      <cc:Work
         rdf:about="">
        <dc:format>image/svg+xml</dc:format>
        <dc:type
           rdf:resource="http://purl.org/dc/dcmitype/StillImage" />
        <dc:title></dc:title>
      </cc:Work>
    </rdf:RDF>
  </metadata>
  <g
     transform="translate(-47.446851,-168.72461)"
     id="layer1">
    <path
       d="m 47.569155,170.89619 v 8.34832 h 2.287056 v -8.34832 z"
       style="display:inline;fill:none;fill-opacity:1;stroke:#ffffff;stroke-width:0.24460773;stroke-miterlimit:4;stroke-dasharray:none;stroke-opacity:1"
       id="rect334677-3-9-5" />
    <path
       d="m 53.164617,170.86957 v 5.0191 a 2.7325902,2.7325902 0 0 1 -1.910653,2.60612 l 0.708432,2.1741 a 5.0193773,5.0193773 0 0 0 3.489277,-4.78022 v -5.0191 z"
       style="display:inline;fill:none;fill-opacity:1;stroke:#ffffff;stroke-width:0.24460773;stroke-miterlimit:4;stroke-dasharray:none;stroke-opacity:1"
       id="rect79833-3-4" />
    <path
       id="path92344-7"
       d="m 81.309835,170.86957 v 5.0191 a 5.0192919,5.0193773 0 0 0 3.489277,4.78022 l 0.708432,-2.1741 a 2.7325436,2.7325902 0 0 1 -1.910651,-2.60612 v -5.0191 z"
       style="display:inline;fill:none;fill-opacity:1;stroke:#ffffff;stroke-width:0.24460773;stroke-miterlimit:4;stroke-dasharray:none;stroke-opacity:1" />
    <path
       id="path92342-4"
       d="m 77.974812,170.86957 v 5.0191 a 2.7325902,2.7325902 0 0 1 -1.910654,2.60612 l 0.708432,2.1741 a 5.0193773,5.0193773 0 0 0 3.48927,-4.78022 v -5.0191 z"
       style="display:inline;fill:none;fill-opacity:1;stroke:#ffffff;stroke-width:0.24460773;stroke-miterlimit:4;stroke-dasharray:none;stroke-opacity:1" />
    <path
       id="path92340-4"
       d="m 83.739879,169.47386 -0.659982,0.38118 1.391275,2.41024 0.660318,-0.38117 z"
       style="display:inline;fill:none;fill-opacity:1;stroke:#ffffff;stroke-width:0.24460773;stroke-miterlimit:4;stroke-dasharray:none;stroke-opacity:1" />
    <path
       id="path82100-1-3"
       d="m 84.748608,168.89169 -0.659974,0.38118 1.391275,2.4099 0.660318,-0.38117 z"
       style="display:inline;fill:none;fill-opacity:1;stroke:#ffffff;stroke-width:0.24460773;stroke-miterlimit:4;stroke-dasharray:none;stroke-opacity:1" />
    <path
       id="path92366-0"
       d="m 65.569034,169.47386 -0.659975,0.38118 0.585579,1.01453 h -1.846843 -6.061608 v 2.28672 h 6.061608 v 2.73238 a 2.7325902,2.7325902 0 0 1 -1.910652,2.60612 l 0.708432,2.1741 a 5.0193773,5.0193773 0 0 0 3.489277,-4.78022 v -2.73238 -1.52402 l 0.365475,0.63301 0.660318,-0.38117 z"
       style="display:inline;fill:none;fill-opacity:1;stroke:#ffffff;stroke-width:0.24460773;stroke-miterlimit:4;stroke-dasharray:none;stroke-opacity:1" />
    <path
       id="rect82102-9-7"
       d="m 66.577763,168.89169 -0.659975,0.38118 1.391275,2.4099 0.660318,-0.38117 z"
       style="display:inline;fill:none;fill-opacity:1;stroke:#ffffff;stroke-width:0.24460773;stroke-miterlimit:4;stroke-dasharray:none;stroke-opacity:1" />
    <circle
       r="1.4039372"
       cy="175.07036"
       cx="71.733841"
       id="path82411-8-8"
       style="display:inline;fill:none;fill-opacity:1;stroke:#ffffff;stroke-width:0.24460773;stroke-miterlimit:4;stroke-dasharray:none" />
    <rect
       transform="scale(-1)"
       y="-176.21376"
       x="-96.717331"
       height="2.2867868"
       width="8.348629"
       id="rect82539-6-6"
       style="display:inline;fill:none;fill-opacity:1;stroke:#ffffff;stroke-width:0.24460773;stroke-miterlimit:4;stroke-dasharray:none;stroke-opacity:1" />
    <path
       d="m 108.70533,169.55747 -8.0644,2.16079 0.59207,2.20857 2.78869,-0.74734 v 0.74734 H 101.233 99.869705 v 2.28705 h 4.132535 a 2.7325902,2.7325902 0 0 1 -1.89121,2.28091 l 0.70843,2.1741 a 5.0193773,5.0193773 0 0 0 3.47836,-4.45501 h 4.07793 v -2.28705 h -4.06701 v -1.36022 l 2.98832,-0.80058 z"
       style="display:inline;fill:none;fill-opacity:1;stroke:#ffffff;stroke-width:0.24460773;stroke-miterlimit:4;stroke-dasharray:none;stroke-opacity:1"
       id="rect82541-1-8" />
    <path
       d="m 114.21549,171.02416 v 2.28671 h 5.98107 l -1.3278,3.64693 h -6.81066 v 2.28671 h 8.34526 2.16079 v -2.28671 h -1.32814 l 1.32814,-3.64693 v -2.28671 z"
       style="display:inline;fill:none;fill-opacity:1;stroke:#ffffff;stroke-width:0.24460773;stroke-miterlimit:4;stroke-dasharray:none;stroke-opacity:1"
       id="rect82731-3-8" />
    <path
       d="m 128.87112,172.54101 v 3.97078 c 3e-5,1.19257 -0.77332,2.24741 -1.91066,2.60612 l 0.70844,2.1741 c 2.07867,-0.66532 3.48916,-2.59766 3.48927,-4.78022 v -3.97078 z"
       style="display:inline;fill:none;fill-opacity:1;stroke:#ffffff;stroke-width:0.24460773;stroke-miterlimit:4;stroke-dasharray:none;stroke-opacity:1"
       id="path85181-6-4" />
    <path
       d="m 125.58386,169.20564 v 2.28706 h 8.0139 l -0.89645,0.89646 1.61684,1.61684 3.18316,-3.18318 -1.61684,-1.61718 z"
       style="display:inline;fill:none;fill-opacity:1;stroke:#ffffff;stroke-width:0.24460773;stroke-miterlimit:4;stroke-dasharray:none;stroke-opacity:1"
       id="rect85907-1-3" />
    <path
       d="m 140.87381,170.8696 v 5.01909 a 2.7325902,2.7325902 0 0 1 -1.91066,2.60612 l 0.70844,2.1741 a 5.0193773,5.0193773 0 0 0 3.48927,-4.78022 v -5.01909 z"
       style="display:inline;fill:none;fill-opacity:1;stroke:#ffffff;stroke-width:0.24460773;stroke-miterlimit:4;stroke-dasharray:none;stroke-opacity:1"
       id="path86225-5-1" />
    <path
       id="rect86249-4-4"
       d="m 146.7775,179.24446 c 1.36151,0.0111 2.69327,-0.60418 3.60523,-1.60822 0.47356,-0.47345 0.94712,-0.94691 1.42068,-1.42037 -0.56784,-0.56784 -1.13567,-1.13567 -1.70352,-1.70351 -0.59992,0.59025 -1.18091,1.20072 -1.79401,1.77691 -0.4262,0.35084 -0.97614,0.54647 -1.52806,0.54495 l -2.6e-4,-5.9647 h -2.40923 v 8.37494 h 2.40923"
       style="display:inline;fill:none;fill-opacity:1;stroke:#ffffff;stroke-width:0.24460773;stroke-miterlimit:4;stroke-dasharray:none" />
    <circle
       r="1.4039372"
       cy="175.07036"
       cx="155.59904"
       id="circle87480-7-9"
       style="display:inline;fill:none;fill-opacity:1;stroke:#ffffff;stroke-width:0.24460773;stroke-miterlimit:4;stroke-dasharray:none" />
    <path
       d="m 159.37233,170.86957 v 2.28672 h 7.27236 l -2.61807,2.6184 -2.0632,-2.06319 -1.61717,1.61684 2.0632,2.06319 1.61684,1.61684 2.06319,2.06319 1.61684,-1.61718 -2.06286,-2.06285 4.23491,-4.23524 v -2.28672 z"
       style="display:inline;fill:none;fill-opacity:1;stroke:#ffffff;stroke-width:0.24460773;stroke-miterlimit:4;stroke-dasharray:none;stroke-opacity:1"
       id="rect88579-6-2" />
    <rect
       transform="scale(-1)"
       y="-176.21376"
       x="-191.76456"
       height="2.2867868"
       width="8.348629"
       id="rect90323-9-0"
       style="display:inline;fill:none;fill-opacity:1;stroke:#ffffff;stroke-width:0.24460773;stroke-miterlimit:4;stroke-dasharray:none;stroke-opacity:1" />
    <path
       id="path92392-6"
       d="m 179.61046,174.38512 -2.8078,2.8078 c -0.84325,0.8433 -2.1359,1.04232 -3.19376,0.49174 l -1.03671,2.03829 c 1.9403,0.99938 4.30427,0.63038 5.84764,-0.91285 l 2.8078,-2.80779 z"
       style="display:inline;fill:none;fill-opacity:1;stroke:#ffffff;stroke-width:0.24460773;stroke-miterlimit:4;stroke-dasharray:none;stroke-opacity:1" />
    <path
       id="path92390-8"
       d="m 173.83208,172.6915 -1.46192,1.6322 3.10947,2.78494 1.46192,-1.63186 z"
       style="display:inline;fill:none;fill-opacity:1;stroke:#ffffff;stroke-width:0.24460773;stroke-miterlimit:4;stroke-dasharray:none;stroke-opacity:1" />
    <path
       id="path90658-3-9"
       d="m 175.46427,170.86957 -1.46191,1.6322 3.10911,2.78494 1.46192,-1.63186 z"
       style="display:inline;fill:none;fill-opacity:1;stroke:#ffffff;stroke-width:0.24460773;stroke-miterlimit:4;stroke-dasharray:none;stroke-opacity:1" />
    <path
       d="m 200.22728,174.385 -2.80777,2.80776 c -0.84325,0.84329 -2.13597,1.04234 -3.19384,0.49177 l -1.03638,2.03826 c 1.9403,0.99938 4.30403,0.63038 5.84741,-0.91284 l 2.80777,-2.80776 z"
       style="display:inline;fill:none;fill-opacity:1;stroke:#ffffff;stroke-width:0.24460773;stroke-miterlimit:4;stroke-dasharray:none;stroke-opacity:1"
       id="path90744-7-2" />
    <rect
       transform="rotate(-138.14735)"
       y="1.4985547"
       x="-264.38614"
       height="2.1911507"
       width="4.1743145"
       id="rect91418-2-6"
       style="display:inline;fill:none;fill-opacity:1;stroke:#ffffff;stroke-width:0.24460772;stroke-miterlimit:4;stroke-dasharray:none;stroke-opacity:1" />
    <text
       id="text97761"
       y="190.64799"
       x="66.883911"
       style="font-size:10.58329964px;line-height:1.25;font-family:'Eurostile Extended';-inkscape-font-specification:'Eurostile Extended';letter-spacing:0px;display:inline;fill:none;stroke:#ffffff;stroke-width:0.26458299"
       xml:space="preserve"><tspan
         y="190.64799"
         x="66.883911"
         style="fill:none;stroke:#ffffff;stroke-width:0.26458299"
         id="tspan97759">live virtual machine</tspan></text>
  </g>
</svg>
