<?xml version="1.0" encoding="UTF-8" standalone="no"?>
<!-- Created with Inkscape (http://www.inkscape.org/) -->

<svg viewBox="0 0 126.22255 8.2994413" version="1.1" id="svg1754" xmlns="http://www.w3.org/2000/svg"
  xmlns:svg="http://www.w3.org/2000/svg" preserveAspectRatio="xMinYMid meet">
  <g id="layer1" transform="translate(-75.726983,-118.33495)">
    <path
      d="m 81.62499,124.52988 -0.551216,0.44097 q -1.212674,-1.46072 -2.094619,-2.20486 -1.019749,1.24024 -2.8112,2.14974 l -0.440972,-0.55121 q 3.004125,-1.43316 3.968752,-4.18924 l -0.05512,-0.0276 -2.067059,0.0551 h -1.07487 v -0.66146 h 3.417536 l 0.137804,-0.11024 q 0.551216,0.38585 0.551216,0.46853 0,0.0827 -0.110243,0.19293 -0.08268,0.0827 -0.110243,0.19292 l -0.578777,1.2678 -0.440972,0.71658 q 1.129992,0.9095 2.259984,2.25998 z"
      style="font-size:7.05556px;line-height:1.25;letter-spacing:0px;display:inline;fill:#000000;fill-opacity:1;stroke-width:0.266487"
      id="path420019" />
    <path
      d="m 87.826166,120.03747 h -4.354604 v -0.63389 h 4.354604 z m 0.744141,1.68121 h -2.397788 q 0,1.4056 -0.440973,2.06706 -0.413411,0.6339 -1.76389,1.12999 l -0.440972,-0.57877 q 1.267796,-0.41342 1.598525,-0.90951 0.33073,-0.49609 0.33073,-1.70877 h -2.563153 v -0.66146 h 5.677521 z"
      style="font-size:7.05556px;line-height:1.25;letter-spacing:0px;display:inline;fill:#000000;fill-opacity:1;stroke-width:0.266487"
      id="path420021" />
    <path d="m 95.322698,122.32502 h -5.098744 v -0.79926 h 5.098744 z"
      style="font-size:7.05556px;line-height:1.25;letter-spacing:0px;display:inline;fill:#000000;fill-opacity:1;stroke-width:0.266487"
      id="path420023" />
    <path
      d="m 102.4885,121.91161 -0.24805,0.57877 q -1.43316,-0.52365 -2.893878,-0.82682 v 3.22461 h -0.661459 v -5.89801 h 0.661459 v 2.01194 q 1.819008,0.35829 3.141928,0.90951 z"
      style="font-size:7.05556px;line-height:1.25;letter-spacing:0px;display:inline;fill:#000000;fill-opacity:1;stroke-width:0.266487"
      id="path420025" />
    <path
      d="m 111.24772,120.09375 -1.47099,-0.0426 q -0.46902,0 -0.76748,0.0107 -0.28781,0.0107 -0.66088,0.064 -0.36242,0.0533 -0.58627,0.20253 -0.21319,0.13857 -0.21319,0.47967 0,0.45835 0.22385,0.60758 0.2345,0.13858 0.72484,0.13858 l 1.28979,0.032 h 1.39638 q 0.92736,0 1.37506,0.29846 0.44769,0.2878 0.44769,1.15121 0,0.99133 -0.53297,1.24715 -0.52231,0.24517 -1.62023,0.24517 l -1.39638,0.0213 q -0.63956,0 -0.98066,-0.0213 -0.33044,-0.0107 -0.83144,-0.10659 -0.49033,-0.1066 -0.72483,-0.43704 -0.23451,-0.3411 -0.23451,-0.98067 l 0.0107,-0.22384 h 0.75682 l 0.0107,0.11725 q 0,0.51165 0.21318,0.70352 0.21319,0.19187 0.74616,0.24517 l 1.31111,0.0426 h 0.22385 0.19186 q 0.66089,0 1.1832,-0.0533 0.52231,-0.064 0.69286,-0.19187 0.18121,-0.13858 0.18121,-0.49034 0,-0.53297 -0.26649,-0.72484 -0.25582,-0.19186 -0.83143,-0.19186 l -1.35374,-0.0107 h -1.28979 q -0.84209,0 -1.27913,-0.26649 -0.43703,-0.26648 -0.43703,-1.06594 0,-0.74616 0.42637,-1.08726 0.42638,-0.35176 1.1832,-0.35176 l 1.4177,-0.064 q 0.39439,0 0.76747,0.0107 0.37308,0 0.8421,0.0426 0.77813,0 1.09791,0.33044 0.33044,0.31979 0.33044,1.08726 h -0.74615 q -0.0426,-0.42637 -0.20253,-0.56495 -0.14923,-0.14923 -0.61825,-0.20252 z"
      style="font-weight:bold;font-size:10.6594px;line-height:1.25;letter-spacing:0px;display:inline;fill:#ffffff;fill-opacity:1;stroke-width:0.266487"
      id="path420027" />
    <path
      d="m 118.92249,120.10441 h -3.46431 v 2.40902 q 0,0.84209 0.2878,1.10858 0.28781,0.26648 1.1299,0.26648 0.76748,0 1.1299,-0.18121 0.36242,-0.19187 0.36242,-0.87407 l -0.0107,-0.56495 h 0.69286 q 0,1.38573 -0.3411,1.83342 -0.33044,0.4477 -1.74814,0.4477 -1.17254,0 -1.71617,-0.29847 -0.53297,-0.30912 -0.53297,-1.38572 v -0.35176 -2.40902 h -1.21517 v -0.63957 h 1.21517 v -1.12989 h 0.74616 v 1.12989 h 3.46431 z"
      style="font-weight:bold;font-size:10.6594px;line-height:1.25;letter-spacing:0px;display:inline;fill:#ffffff;fill-opacity:1;stroke-width:0.266487"
      id="path420029" />
    <path
      d="m 125.29679,123.88849 q -0.19187,0.33044 -0.46902,0.46902 -0.26648,0.12791 -0.6822,0.15989 l -1.37506,0.032 h -0.65022 q -1.32177,0 -1.75881,-0.37308 -0.42637,-0.38374 -0.42637,-1.11924 0,-0.81011 0.29846,-1.14055 0.29846,-0.33045 0.83143,-0.38374 0.54363,-0.0533 0.95935,-0.064 0.41572,-0.0107 0.77814,-0.0107 l 1.40704,0.0426 q 0.38374,0 0.61824,0.11725 0.23451,0.11725 0.46902,0.43704 v -0.53297 q 0,-0.45836 -0.0746,-0.75682 -0.0746,-0.30912 -0.33044,-0.47967 -0.25583,-0.17055 -0.87408,-0.20253 -0.60758,-0.032 -0.90604,-0.032 -0.36242,0 -0.70352,0.0107 -0.3411,0 -0.74616,0.0533 -0.3944,0.0533 -0.54363,0.25582 -0.14923,0.20253 -0.14923,0.59693 h -0.81012 q 0,-0.79946 0.3411,-1.11924 0.35176,-0.31978 1.04462,-0.38374 0.70353,-0.0746 1.28979,-0.0746 0.72484,0 1.20451,0.032 0.47968,0.0213 1.03397,0.17055 0.55429,0.14924 0.75681,0.59693 0.21319,0.43703 0.21319,1.16187 v 3.12321 h -0.74616 z m -2.51562,0 h 0.21319 q 0.54363,0 0.95934,-0.0213 0.41572,-0.032 0.87407,-0.15989 0.46902,-0.12791 0.46902,-0.72484 0,-0.51165 -0.31979,-0.65022 -0.30912,-0.14923 -0.6822,-0.18121 -0.36242,-0.0426 -0.82077,-0.0426 l -0.66088,0.0107 q -0.76748,0 -1.08726,0.032 -0.30912,0.032 -0.56495,0.12791 -0.25583,0.0959 -0.3411,0.29847 -0.0853,0.19187 -0.0853,0.47967 0,0.38374 0.22385,0.59692 0.2345,0.21319 0.94868,0.21319 z"
      style="font-weight:bold;font-size:10.6594px;line-height:1.25;letter-spacing:0px;display:inline;fill:#ffffff;fill-opacity:1;stroke-width:0.266487"
      id="path420031" />
    <path
      d="m 132.18275,120.10441 h -3.4643 v 2.40902 q 0,0.84209 0.2878,1.10858 0.2878,0.26648 1.1299,0.26648 0.76747,0 1.12989,-0.18121 0.36242,-0.19187 0.36242,-0.87407 l -0.0107,-0.56495 h 0.69286 q 0,1.38573 -0.3411,1.83342 -0.33044,0.4477 -1.74814,0.4477 -1.17253,0 -1.71616,-0.29847 -0.53297,-0.30912 -0.53297,-1.38572 v -0.35176 -2.40902 h -1.21517 v -0.63957 h 1.21517 v -1.12989 h 0.74615 v 1.12989 h 3.46431 z"
      style="font-weight:bold;font-size:10.6594px;line-height:1.25;letter-spacing:0px;display:inline;fill:#ffffff;fill-opacity:1;stroke-width:0.266487"
      id="path420033" />
    <path
      d="m 135.06077,123.79256 q 0.17055,0.032 0.54363,0.064 0.37308,0.032 0.88473,0.032 h 0.40506 q 0.55428,0 0.87407,-0.032 0.31978,-0.032 0.5756,-0.13857 0.25583,-0.11726 0.37308,-0.29847 0.11726,-0.18121 0.13858,-0.44769 h 0.78879 q 0,0.99132 -0.79945,1.28979 -0.7888,0.2878 -2.04661,0.2878 -1.37506,0 -2.03594,-0.11725 -0.66089,-0.12792 -1.08726,-0.66089 -0.41572,-0.54363 -0.41572,-1.79078 0,-1.54561 0.58627,-2.06792 0.59692,-0.53297 2.1532,-0.53297 l 0.51165,0.0107 q 1.20451,0 1.8121,0.13857 0.61824,0.12792 0.97,0.65023 0.36242,0.52231 0.36242,1.66286 l -0.0107,0.25583 h -5.63882 q 0,0.7355 0.20253,1.15121 0.20253,0.40506 0.85275,0.54363 z m 1.7588,-3.74145 h -0.58627 q -0.61824,0 -1.09792,0.0746 -0.47967,0.064 -0.72483,0.26648 -0.23451,0.20253 -0.30913,0.46902 -0.0746,0.25582 -0.0746,0.59692 h 4.85003 q 0,-0.33044 -0.064,-0.58626 -0.064,-0.25583 -0.25583,-0.42638 -0.19187,-0.18121 -0.60758,-0.2878 -0.40506,-0.1066 -1.1299,-0.1066 z"
      style="font-weight:bold;font-size:10.6594px;line-height:1.25;letter-spacing:0px;display:inline;fill:#ffffff;fill-opacity:1;stroke-width:0.266487"
      id="path420035" />
  </g>
</svg>