<?xml version="1.0" encoding="UTF-8" standalone="no"?>
<!-- Created with Inkscape (http://www.inkscape.org/) -->

<svg
   width="30.972239mm"
   height="110.70889mm"
   viewBox="0 0 30.972239 110.70889"
   version="1.1"
   id="svg18477"
   inkscape:version="1.1.2 (1:1.1+202202050852+0a00cf5339)"
   sodipodi:docname="right-text.svg"
   xmlns:inkscape="http://www.inkscape.org/namespaces/inkscape"
   xmlns:sodipodi="http://sodipodi.sourceforge.net/DTD/sodipodi-0.dtd"
   xmlns="http://www.w3.org/2000/svg"
   xmlns:svg="http://www.w3.org/2000/svg">
  <sodipodi:namedview
     id="namedview18479"
     pagecolor="#ffffff"
     bordercolor="#666666"
     borderopacity="1.0"
     inkscape:pageshadow="2"
     inkscape:pageopacity="0.0"
     inkscape:pagecheckerboard="0"
     inkscape:document-units="mm"
     showgrid="false"
     inkscape:zoom="0.46146184"
     inkscape:cx="83.430517"
     inkscape:cy="295.79911"
     inkscape:window-width="1366"
     inkscape:window-height="703"
     inkscape:window-x="0"
     inkscape:window-y="544"
     inkscape:window-maximized="1"
     inkscape:current-layer="layer1" />
  <defs
     id="defs18474" />
  <g
     inkscape:label="Layer 1"
     inkscape:groupmode="layer"
     id="layer1"
     transform="translate(-83.131645,-70.784552)">
    <text
       xml:space="preserve"
       style="font-size:10.5833px;line-height:1.25;font-family:'Eurostile Extended';-inkscape-font-specification:'Eurostile Extended';letter-spacing:0px;display:inline;fill:#ffffff;fill-opacity:1;stroke-width:0.264583"
       x="70.264275"
       y="-106.98132"
       id="text223282"
       transform="rotate(90)"><tspan
         sodipodi:role="line"
         id="tspan223280"
         style="fill:#ffffff;fill-opacity:1;stroke-width:0.264583"
         x="70.264275"
         y="-106.98132">Processing Data</tspan></text>
    <path
       style="display:inline;fill:none;stroke:#ffffff;stroke-width:0.529167;stroke-linecap:butt;stroke-linejoin:miter;stroke-miterlimit:4;stroke-dasharray:none;stroke-opacity:1"
       d="M 102.48866,181.49344 V 72.485099"
       id="path233943"
       sodipodi:nodetypes="cc" />
    <g
       id="g446737"
       transform="matrix(0,0.25,-0.25,0,102.26469,16.612911)"
       style="display:inline;fill:#ffffff;fill-opacity:1">
      <g
         id="g2004"
         transform="rotate(-90,242.99967,47.682391)">
        <path
           id="path446711"
           style="fill:none;fill-opacity:1;fill-rule:nonzero;stroke:#ffffff;stroke-width:1.5875;stroke-miterlimit:4;stroke-dasharray:none;stroke-opacity:1"
           d="m 225.61035,30.873624 v 6.925675 h 30.72886 a 19.443195,19.443195 0 0 1 -5.09423,24.387141 19.443195,19.443195 0 0 1 -27.10635,-2.973461 l -5.36506,4.242636 a 26.277686,26.277686 0 0 0 36.71093,4.091739 26.277686,26.277686 0 0 0 4.48861,-36.67373 z"
           inkscape:linked-fill="path450991" />
        <circle
           style="fill:none;fill-opacity:1;stroke:#ffffff;stroke-width:1.5875;stroke-miterlimit:4;stroke-dasharray:none;stroke-opacity:1"
           id="circle446713"
           cx="262.53018"
           cy="26.858629"
           r="4.6955929" />
      </g>
      <path
         id="path446715"
         style="fill:none;fill-opacity:1;stroke:#ffffff;stroke-width:1.5875;stroke-miterlimit:4;stroke-dasharray:none;stroke-opacity:1"
         d="m 276.35557,68.699739 h 6.92568 22.86372 6.92567 4.57441 v -6.92568 h -4.57441 v -20.5114 h 4.57441 v -6.92568 h -4.57441 -6.92567 -22.86372 -6.92568 z m 6.92568,-6.92568 v -20.5114 h 22.86372 v 20.5114 z" />
      <path
         id="path446719"
         style="fill:none;fill-opacity:1;stroke:#ffffff;stroke-width:1.5875;stroke-miterlimit:4;stroke-dasharray:none;stroke-opacity:1"
         d="m 325.83887,35.645475 1.80971,6.86573 3.94911,14.98409 h -5.19348 v 6.92568 h 7.01869 l 2.33784,8.8728 6.69727,-1.76418 -1.87379,-7.10862 h 20.18275 v -0.0217 a 6.9036151,6.9036151 0 0 0 4.88239,-2.02264 6.9036151,6.9036151 0 0 0 2.02158,-4.88135 v -28.34042 h -6.92567 v 28.34043 h -21.98626 l -3.38377,-12.8416 a 19.443195,19.443195 0 0 1 8.68267,9.02165 l 6.23838,-2.80394 a 26.277686,26.277686 0 0 0 -24.45742,-15.22593 z" />
      <g
         id="g2018"
         transform="rotate(-90,389.15924,43.571197)">
        <path
           id="path446721"
           style="fill:none;fill-opacity:1;stroke:#ffffff;stroke-width:1.5875;stroke-miterlimit:4;stroke-dasharray:none;stroke-opacity:1"
           d="m 357.41883,63.455759 a 26.277686,26.277686 0 0 0 36.71108,4.09176 26.277686,26.277686 0 0 0 4.48902,-36.673772 l -5.36174,4.24019 a 19.443195,19.443195 0 0 1 -3.36668,27.072846 19.443195,19.443195 0 0 1 -27.10694,-2.973588 z" />
        <rect
           style="fill:none;fill-opacity:1;stroke:#ffffff;stroke-width:1.5875;stroke-miterlimit:4;stroke-dasharray:none;stroke-opacity:1"
           id="rect446725"
           width="30.403999"
           height="6.9259057"
           x="209.03993"
           y="-298.79099"
           transform="rotate(60)" />
        <rect
           style="fill:none;fill-opacity:1;stroke:#ffffff;stroke-width:1.5875;stroke-miterlimit:4;stroke-dasharray:none;stroke-opacity:1"
           id="rect446727"
           width="30.403999"
           height="6.9259057"
           x="214.78905"
           y="-308.74875"
           transform="rotate(60)" />
      </g>
      <g
         id="g2013"
         transform="rotate(-90,427.19178,38.279532)">
        <path
           id="path446723"
           style="fill:none;fill-opacity:1;stroke:#ffffff;stroke-width:1.5875;stroke-miterlimit:4;stroke-dasharray:none;stroke-opacity:1"
           d="m 390.09159,63.455759 a 26.277686,26.277686 0 0 0 36.71108,4.09176 26.277686,26.277686 0 0 0 4.489,-36.673772 l -5.36174,4.24019 a 19.443195,19.443195 0 0 1 -3.36666,27.072846 19.443195,19.443195 0 0 1 -27.10694,-2.973588 z" />
        <rect
           style="fill:none;fill-opacity:1;stroke:#ffffff;stroke-width:1.5875;stroke-miterlimit:4;stroke-dasharray:none;stroke-opacity:1"
           id="rect446729"
           width="30.403999"
           height="6.9259057"
           x="231.36748"
           y="-337.46341"
           transform="rotate(60)" />
      </g>
      <g
         id="g2009"
         transform="rotate(-90,478.86237,31.288745)">
        <path
           id="path446731"
           style="fill:none;fill-opacity:1;stroke:#ffffff;stroke-width:1.5875;stroke-miterlimit:4;stroke-dasharray:none;stroke-opacity:1"
           d="m 456.95846,20.017439 -6.86572,1.809708 a 19.443195,19.443195 0 0 1 -11.1642,16.408301 l 2.804,6.238379 a 26.277686,26.277686 0 0 0 7.57576,-5.302002 h 16.38761 a 19.443195,19.443195 0 0 1 -5.09424,24.387141 19.443195,19.443195 0 0 1 -6.48854,3.351737 l 2.78538,6.296252 a 26.277686,26.277686 0 0 0 7.94269,-4.288107 26.277686,26.277686 0 0 0 4.4886,-36.672698 h -15.07093 a 26.277686,26.277686 0 0 0 2.69959,-12.228711 z" />
        <rect
           style="fill:none;fill-opacity:1;stroke:#ffffff;stroke-width:1.5875;stroke-miterlimit:4;stroke-dasharray:none;stroke-opacity:1"
           id="rect446733"
           width="30.403999"
           height="6.9259057"
           x="251.88879"
           y="-399.16373"
           transform="rotate(60)" />
        <rect
           style="fill:none;fill-opacity:1;stroke:#ffffff;stroke-width:1.5875;stroke-miterlimit:4;stroke-dasharray:none;stroke-opacity:1"
           id="rect446735"
           width="30.403999"
           height="6.9259057"
           x="251.88879"
           y="-406.74313"
           transform="rotate(60)" />
      </g>
    </g>
  </g>
</svg>
